<svg width="163" height="43" viewBox="0 0 163 43" fill="none" xmlns="http://www.w3.org/2000/svg">
<path d="M59.54 32.146C57.5 32.146 55.772 31.744 54.356 30.94C52.94 30.124 51.86 29.014 51.116 27.61C50.372 26.206 50 24.604 50 22.804C50 20.992 50.342 19.372 51.026 17.944C51.722 16.504 52.748 15.376 54.104 14.56C55.472 13.732 57.17 13.318 59.198 13.318C59.918 13.318 60.626 13.372 61.322 13.48C62.03 13.588 62.696 13.738 63.32 13.93C63.944 14.122 64.502 14.35 64.994 14.614L64.598 19.258C63.914 18.862 63.284 18.568 62.708 18.376C62.144 18.172 61.634 18.04 61.178 17.98C60.722 17.908 60.314 17.872 59.954 17.872C58.598 17.872 57.512 18.304 56.696 19.168C55.892 20.02 55.49 21.178 55.49 22.642C55.49 23.638 55.688 24.52 56.084 25.288C56.492 26.044 57.086 26.638 57.866 27.07C58.658 27.502 59.63 27.718 60.782 27.718C61.226 27.718 61.67 27.676 62.114 27.592C62.558 27.508 62.996 27.382 63.428 27.214C63.872 27.046 64.292 26.83 64.688 26.566L64.958 31.21C64.55 31.39 64.076 31.552 63.536 31.696C63.008 31.828 62.414 31.936 61.754 32.02C61.094 32.104 60.356 32.146 59.54 32.146Z" fill="#35364D"/>
<path d="M72.1175 32.236C70.3175 32.236 68.9555 31.702 68.0315 30.634C67.1075 29.566 66.6455 27.976 66.6455 25.864C66.6455 25.06 66.6455 24.364 66.6455 23.776C66.6455 23.188 66.6455 22.582 66.6455 21.958C66.6455 20.77 66.6455 19.726 66.6455 18.826C66.6455 17.914 66.6455 17.062 66.6455 16.27C66.6455 15.466 66.6455 14.638 66.6455 13.786L72.0275 13.624C72.0275 14.908 72.0275 16.174 72.0275 17.422C72.0275 18.658 72.0275 19.942 72.0275 21.274V24.262C72.0275 25.306 72.2015 26.098 72.5495 26.638C72.8975 27.166 73.5215 27.43 74.4215 27.43C74.9135 27.43 75.3695 27.328 75.7895 27.124C76.2215 26.908 76.6115 26.626 76.9595 26.278C77.3075 25.918 77.6255 25.522 77.9135 25.09V21.274C77.9135 19.942 77.9135 18.682 77.9135 17.494C77.9135 16.294 77.9135 15.058 77.9135 13.786H83.2955C83.2955 15.058 83.2955 16.318 83.2955 17.566C83.2955 18.814 83.2955 20.278 83.2955 21.958V23.974C83.2955 25.462 83.2955 26.812 83.2955 28.024C83.2955 29.224 83.2955 30.466 83.2955 31.75H78.7775L78.5435 28.888H78.0755C77.6795 29.464 77.1935 30.01 76.6175 30.526C76.0535 31.03 75.3935 31.438 74.6375 31.75C73.8935 32.074 73.0535 32.236 72.1175 32.236Z" fill="#35364D"/>
<path d="M86.0607 31.75C86.0607 30.466 86.0607 29.224 86.0607 28.024C86.0607 26.812 86.0607 25.462 86.0607 23.974V22.174C86.0607 20.794 86.0607 19.408 86.0607 18.016C86.0607 16.624 86.0607 15.214 86.0607 13.786L90.5787 13.516L90.8127 16.828H91.2627C91.7307 15.856 92.2467 15.118 92.8107 14.614C93.3747 14.098 93.9507 13.75 94.5387 13.57C95.1267 13.39 95.6907 13.3 96.2307 13.3C96.5067 13.3 96.8128 13.324 97.1488 13.372C97.4968 13.42 97.8207 13.504 98.1208 13.624L97.6527 18.844C97.1847 18.808 96.7648 18.778 96.3927 18.754C96.0207 18.73 95.6247 18.718 95.2048 18.718C94.8688 18.718 94.5207 18.754 94.1607 18.826C93.8127 18.898 93.4708 19.042 93.1348 19.258C92.7988 19.474 92.4867 19.774 92.1987 20.158C91.9107 20.542 91.6587 21.04 91.4427 21.652V24.262C91.4427 25.606 91.4427 26.872 91.4427 28.06C91.4427 29.236 91.4427 30.466 91.4427 31.75H86.0607Z" fill="#35364D"/>
<path d="M103.335 32.182C102.303 32.182 101.403 31.966 100.635 31.534C99.8671 31.102 99.2671 30.496 98.8351 29.716C98.4031 28.924 98.1871 27.988 98.1871 26.908C98.1871 25.888 98.3671 25.036 98.7271 24.352C99.0871 23.656 99.5491 23.092 100.113 22.66C100.689 22.228 101.313 21.898 101.985 21.67C102.669 21.442 103.335 21.274 103.983 21.166L108.987 20.392C109.011 19.696 108.879 19.156 108.591 18.772C108.303 18.376 107.883 18.1 107.331 17.944C106.791 17.788 106.143 17.71 105.387 17.71C104.979 17.71 104.535 17.746 104.055 17.818C103.575 17.878 103.071 17.974 102.543 18.106C102.027 18.238 101.487 18.4 100.923 18.592C100.371 18.784 99.8131 19.018 99.2491 19.294L98.9971 14.704C99.4411 14.548 99.9511 14.386 100.527 14.218C101.103 14.05 101.727 13.9 102.399 13.768C103.071 13.624 103.779 13.51 104.523 13.426C105.279 13.342 106.053 13.3 106.845 13.3C108.345 13.3 109.623 13.522 110.679 13.966C111.747 14.398 112.563 15.082 113.127 16.018C113.691 16.954 113.973 18.178 113.973 19.69C113.973 20.278 113.973 20.998 113.973 21.85C113.973 22.702 113.973 23.464 113.973 24.136V25.846C113.973 26.758 113.973 27.7 113.973 28.672C113.973 29.632 113.973 30.658 113.973 31.75H109.383L109.041 29.356H108.627C108.303 29.812 107.895 30.262 107.403 30.706C106.911 31.138 106.323 31.492 105.639 31.768C104.967 32.044 104.199 32.182 103.335 32.182ZM105.477 28.024C105.897 28.024 106.317 27.928 106.737 27.736C107.157 27.532 107.547 27.25 107.907 26.89C108.267 26.518 108.579 26.08 108.843 25.576V22.822C108.699 22.93 108.513 23.032 108.285 23.128C108.069 23.212 107.745 23.308 107.313 23.416C106.893 23.512 106.305 23.638 105.549 23.794C105.117 23.878 104.745 24.022 104.433 24.226C104.121 24.43 103.875 24.694 103.695 25.018C103.527 25.33 103.443 25.702 103.443 26.134C103.443 26.818 103.647 27.304 104.055 27.592C104.475 27.88 104.949 28.024 105.477 28.024Z" fill="#35364D"/>
<path d="M124.336 32.236C123.004 32.236 121.864 32.038 120.916 31.642C119.98 31.234 119.26 30.586 118.756 29.698C118.264 28.81 118.018 27.64 118.018 26.188C118.018 25.408 118.018 24.61 118.018 23.794C118.018 22.966 118.018 22.102 118.018 21.202C118.018 20.302 118.018 19.354 118.018 18.358C118.018 17.362 118.018 16.288 118.018 15.136C118.018 13.78 118.018 12.538 118.018 11.41C118.018 10.282 118.018 9.13 118.018 7.954L123.31 7C123.31 7.936 123.31 8.824 123.31 9.664C123.31 10.492 123.31 11.35 123.31 12.238C123.31 13.114 123.31 14.08 123.31 15.136V24.496C123.31 25.588 123.508 26.422 123.904 26.998C124.312 27.562 124.971 27.844 125.883 27.844C126.267 27.844 126.688 27.778 127.144 27.646C127.6 27.502 128.038 27.28 128.458 26.98L128.764 31.336C128.452 31.528 128.056 31.69 127.576 31.822C127.096 31.954 126.573 32.056 126.009 32.128C125.445 32.2 124.888 32.236 124.336 32.236ZM115.102 17.836V13.786H128.674V17.836C127.546 17.836 126.411 17.836 125.271 17.836C124.143 17.836 123.051 17.836 121.995 17.836H119.602H115.102Z" fill="#35364D"/>
<path d="M138.914 32.236C137.282 32.236 135.86 31.978 134.648 31.462C133.448 30.946 132.452 30.244 131.66 29.356C130.88 28.468 130.292 27.454 129.896 26.314C129.512 25.162 129.32 23.962 129.32 22.714C129.32 20.926 129.68 19.324 130.4 17.908C131.132 16.48 132.2 15.358 133.604 14.542C135.02 13.714 136.754 13.3 138.806 13.3C140.39 13.3 141.776 13.54 142.964 14.02C144.164 14.488 145.16 15.154 145.952 16.018C146.756 16.87 147.356 17.872 147.752 19.024C148.148 20.164 148.346 21.394 148.346 22.714C148.346 24.526 147.98 26.152 147.248 27.592C146.516 29.02 145.448 30.154 144.044 30.994C142.64 31.822 140.93 32.236 138.914 32.236ZM138.896 27.844C139.796 27.844 140.534 27.604 141.11 27.124C141.698 26.632 142.136 25.996 142.424 25.216C142.724 24.436 142.874 23.602 142.874 22.714C142.874 21.658 142.706 20.758 142.37 20.014C142.034 19.258 141.566 18.682 140.966 18.286C140.366 17.89 139.67 17.692 138.878 17.692C137.99 17.692 137.24 17.914 136.628 18.358C136.028 18.802 135.572 19.402 135.26 20.158C134.96 20.914 134.81 21.766 134.81 22.714C134.81 23.602 134.96 24.436 135.26 25.216C135.572 25.996 136.028 26.632 136.628 27.124C137.24 27.604 137.996 27.844 138.896 27.844Z" fill="#35364D"/>
<path d="M150.367 31.75C150.367 30.466 150.367 29.224 150.367 28.024C150.367 26.812 150.367 25.462 150.367 23.974V22.174C150.367 20.794 150.367 19.408 150.367 18.016C150.367 16.624 150.367 15.214 150.367 13.786L154.885 13.516L155.119 16.828H155.569C156.037 15.856 156.553 15.118 157.117 14.614C157.681 14.098 158.257 13.75 158.845 13.57C159.433 13.39 159.997 13.3 160.537 13.3C160.813 13.3 161.119 13.324 161.455 13.372C161.803 13.42 162.127 13.504 162.427 13.624L161.959 18.844C161.491 18.808 161.071 18.778 160.699 18.754C160.327 18.73 159.931 18.718 159.511 18.718C159.175 18.718 158.827 18.754 158.467 18.826C158.119 18.898 157.777 19.042 157.441 19.258C157.105 19.474 156.793 19.774 156.505 20.158C156.217 20.542 155.965 21.04 155.749 21.652V24.262C155.749 25.606 155.749 26.872 155.749 28.06C155.749 29.236 155.749 30.466 155.749 31.75H150.367Z" fill="#35364D"/>
<path d="M18.5 43L0 32.3346V10.6654L18.5 0L37 10.6654V32.3346L18.5 43ZM18.5 36.3412L31.3207 28.7795V14.2205L18.5 6.60236L5.67933 14.2205V28.7795L18.5 36.3412ZM18.4438 32.2782C16.4195 32.2782 14.5826 31.7892 12.9331 30.811C11.2837 29.8329 9.97163 28.5162 8.99696 26.8609C8.02229 25.168 7.53496 23.3246 7.53496 21.3307C7.53496 19.3368 8.02229 17.5122 8.99696 15.857C9.97163 14.2017 11.2837 12.8849 12.9331 11.9068C14.5826 10.8911 16.4195 10.3832 18.4438 10.3832C20.4306 10.3832 22.2487 10.8911 23.8982 11.9068C25.5476 12.8849 26.8597 14.2017 27.8344 15.857C28.8465 17.5122 29.3526 19.3368 29.3526 21.3307C29.3526 23.3246 28.8653 25.1492 27.8906 26.8045C26.9159 28.4598 25.6039 29.7953 23.9544 30.811C22.305 31.7892 20.4681 32.2782 18.4438 32.2782ZM18.4438 27.4252C19.5684 27.4252 20.5805 27.143 21.4802 26.5787C22.3799 26.0144 23.1109 25.2808 23.6733 24.378C24.2356 23.4374 24.5167 22.4217 24.5167 21.3307C24.5167 20.2021 24.2356 19.1864 23.6733 18.2835C23.1109 17.3806 22.3799 16.6658 21.4802 16.1391C20.5805 15.5748 19.5684 15.2926 18.4438 15.2926C17.3566 15.2926 16.3445 15.5748 15.4073 16.1391C14.5076 16.6658 13.7766 17.3806 13.2143 18.2835C12.652 19.1864 12.3708 20.2021 12.3708 21.3307C12.3708 22.4217 12.652 23.4374 13.2143 24.378C13.7766 25.2808 14.5076 26.0144 15.4073 26.5787C16.3445 27.143 17.3566 27.4252 18.4438 27.4252Z" fill="#4F46E5"/>
<path d="M18.4438 32.2782C16.4195 32.2782 14.5826 31.7892 12.9331 30.811C11.2837 29.8329 9.97163 28.5162 8.99696 26.8609C8.02229 25.168 7.53496 23.3246 7.53496 21.3307C7.53496 19.3368 8.02229 17.5123 8.99696 15.857C9.97163 14.2017 11.2837 12.885 12.9331 11.9068C14.5826 10.8911 16.4195 10.3832 18.4438 10.3832C20.4306 10.3832 22.2487 10.8911 23.8982 11.9068C25.5476 12.885 26.8597 14.2017 27.8344 15.857C28.8465 17.5123 29.3526 19.3368 29.3526 21.3307C29.3526 23.3246 28.8653 25.1492 27.8906 26.8045C26.9159 28.4598 25.6039 29.7953 23.9544 30.811C22.305 31.7892 20.4681 32.2782 18.4438 32.2782ZM18.4438 27.4252C19.5684 27.4252 20.5805 27.1431 21.4802 26.5787C22.3799 26.0144 23.1109 25.2808 23.6733 24.378C24.2356 23.4375 24.5167 22.4217 24.5167 21.3307C24.5167 20.2021 24.2356 19.1864 23.6733 18.2835C23.1109 17.3806 22.3799 16.6658 21.4802 16.1391C20.5805 15.5748 19.5684 15.2927 18.4438 15.2927C17.3566 15.2927 16.3445 15.5748 15.4073 16.1391C14.5076 16.6658 13.7766 17.3806 13.2143 18.2835C12.652 19.1864 12.3708 20.2021 12.3708 21.3307C12.3708 22.4217 12.652 23.4375 13.2143 24.378C13.7766 25.2808 14.5076 26.0144 15.4073 26.5787C16.3445 27.1431 17.3566 27.4252 18.4438 27.4252Z" fill="#5CC4CD"/>
</svg>
