<svg width="161" height="98" viewBox="0 0 161 98" fill="none" xmlns="http://www.w3.org/2000/svg">
<rect x="0.5" y="0.5" width="160" height="97" rx="24.5" fill="white" stroke="#DDDBEB"/>
<path d="M47.72 58C47.72 57.26 47.72 56.55 47.72 55.87C47.72 55.19 47.72 54.44 47.72 53.62V52.62C47.72 51.8867 47.72 51.1367 47.72 50.37C47.72 49.6033 47.72 48.84 47.72 48.08L49.16 47.98L49.21 50H49.38C49.6533 49.3933 49.9667 48.9367 50.32 48.63C50.68 48.3167 51.0433 48.1067 51.41 48C51.7767 47.8933 52.1133 47.84 52.42 47.84C52.6067 47.84 52.7933 47.8533 52.98 47.88C53.1667 47.9067 53.3433 47.95 53.51 48.01L53.36 49.67C53.14 49.63 52.94 49.5967 52.76 49.57C52.5867 49.5433 52.3833 49.53 52.15 49.53C51.9567 49.53 51.7367 49.56 51.49 49.62C51.25 49.6733 51 49.79 50.74 49.97C50.4867 50.1433 50.24 50.4067 50 50.76C49.76 51.1067 49.55 51.57 49.37 52.15V53.69C49.37 54.47 49.37 55.2 49.37 55.88C49.37 56.5533 49.37 57.26 49.37 58H47.72ZM53.1337 58C53.4471 57.2533 53.7504 56.5333 54.0437 55.84C54.3437 55.1467 54.6904 54.3467 55.0837 53.44L57.1938 48.48C57.6004 47.5333 57.9571 46.7 58.2638 45.98C58.5771 45.2533 58.8971 44.5067 59.2238 43.74H60.8637C60.6438 44.2533 60.4304 44.7533 60.2237 45.24C60.0171 45.7267 59.8004 46.2333 59.5737 46.76C59.3471 47.2867 59.0938 47.8733 58.8138 48.52L56.7138 53.44C56.3271 54.3467 55.9838 55.15 55.6837 55.85C55.3904 56.55 55.0871 57.2667 54.7737 58H53.1337ZM67.06 58C66.34 58 65.67 58 65.05 58C64.4367 58 63.8767 58 63.37 58C62.87 58 62.43 58 62.05 58C62.05 57.2333 62.05 56.49 62.05 55.77C62.05 55.05 62.05 54.2433 62.05 53.35V48.51C62.05 47.59 62.05 46.76 62.05 46.02C62.05 45.28 62.05 44.52 62.05 43.74C62.8567 43.74 63.7633 43.74 64.77 43.74C65.7767 43.74 66.7933 43.74 67.82 43.74C68.7933 43.74 69.6067 43.82 70.26 43.98C70.92 44.1333 71.4433 44.3567 71.83 44.65C72.2233 44.9367 72.5033 45.28 72.67 45.68C72.8433 46.08 72.93 46.5267 72.93 47.02C72.93 47.6267 72.8167 48.1533 72.59 48.6C72.3633 49.0467 72.0533 49.4167 71.66 49.71C71.2667 49.9967 70.8233 50.2033 70.33 50.33V50.58C70.8967 50.7067 71.4 50.9033 71.84 51.17C72.2867 51.4367 72.6333 51.8 72.88 52.26C73.1267 52.72 73.25 53.3 73.25 54C73.25 54.6 73.1533 55.1467 72.96 55.64C72.7733 56.1267 72.4467 56.5467 71.98 56.9C71.52 57.2533 70.89 57.5267 70.09 57.72C69.29 57.9067 68.28 58 67.06 58ZM65.28 55.53H67.36C67.9333 55.53 68.4033 55.46 68.77 55.32C69.1433 55.18 69.4167 54.9767 69.59 54.71C69.7633 54.4433 69.85 54.1133 69.85 53.72C69.85 53.1267 69.65 52.69 69.25 52.41C68.85 52.1233 68.2733 51.98 67.52 51.98H64.5V49.67H67.38C67.8667 49.67 68.27 49.5933 68.59 49.44C68.91 49.28 69.1467 49.0667 69.3 48.8C69.46 48.5333 69.54 48.2233 69.54 47.87C69.54 47.3167 69.3767 46.9 69.05 46.62C68.7233 46.3333 68.2267 46.19 67.56 46.19H65.28C65.28 46.65 65.28 47.12 65.28 47.6C65.28 48.08 65.28 48.6267 65.28 49.24V52.64C65.28 53.2133 65.28 53.73 65.28 54.19C65.28 54.6433 65.28 55.09 65.28 55.53ZM79.1122 58.27C78.2055 58.27 77.4155 58.1267 76.7422 57.84C76.0755 57.5533 75.5222 57.1633 75.0822 56.67C74.6489 56.1767 74.3222 55.6133 74.1022 54.98C73.8889 54.34 73.7822 53.6733 73.7822 52.98C73.7822 51.9867 73.9822 51.0967 74.3822 50.31C74.7889 49.5167 75.3822 48.8933 76.1622 48.44C76.9489 47.98 77.9122 47.75 79.0522 47.75C79.9322 47.75 80.7022 47.8833 81.3622 48.15C82.0289 48.41 82.5822 48.78 83.0222 49.26C83.4689 49.7333 83.8022 50.29 84.0222 50.93C84.2422 51.5633 84.3522 52.2467 84.3522 52.98C84.3522 53.9867 84.1489 54.89 83.7422 55.69C83.3355 56.4833 82.7422 57.1133 81.9622 57.58C81.1822 58.04 80.2322 58.27 79.1122 58.27ZM79.1022 55.83C79.6022 55.83 80.0122 55.6967 80.3322 55.43C80.6589 55.1567 80.9022 54.8033 81.0622 54.37C81.2289 53.9367 81.3122 53.4733 81.3122 52.98C81.3122 52.3933 81.2189 51.8933 81.0322 51.48C80.8455 51.06 80.5855 50.74 80.2522 50.52C79.9189 50.3 79.5322 50.19 79.0922 50.19C78.5989 50.19 78.1822 50.3133 77.8422 50.56C77.5089 50.8067 77.2555 51.14 77.0822 51.56C76.9155 51.98 76.8322 52.4533 76.8322 52.98C76.8322 53.4733 76.9155 53.9367 77.0822 54.37C77.2555 54.8033 77.5089 55.1567 77.8422 55.43C78.1822 55.6967 78.6022 55.83 79.1022 55.83ZM90.2653 58.27C89.3586 58.27 88.5686 58.1267 87.8953 57.84C87.2286 57.5533 86.6753 57.1633 86.2353 56.67C85.802 56.1767 85.4753 55.6133 85.2553 54.98C85.042 54.34 84.9353 53.6733 84.9353 52.98C84.9353 51.9867 85.1353 51.0967 85.5353 50.31C85.942 49.5167 86.5353 48.8933 87.3153 48.44C88.102 47.98 89.0653 47.75 90.2053 47.75C91.0853 47.75 91.8553 47.8833 92.5153 48.15C93.182 48.41 93.7353 48.78 94.1753 49.26C94.622 49.7333 94.9553 50.29 95.1753 50.93C95.3953 51.5633 95.5053 52.2467 95.5053 52.98C95.5053 53.9867 95.302 54.89 94.8953 55.69C94.4886 56.4833 93.8953 57.1133 93.1153 57.58C92.3353 58.04 91.3853 58.27 90.2653 58.27ZM90.2553 55.83C90.7553 55.83 91.1653 55.6967 91.4853 55.43C91.812 55.1567 92.0553 54.8033 92.2153 54.37C92.382 53.9367 92.4653 53.4733 92.4653 52.98C92.4653 52.3933 92.372 51.8933 92.1853 51.48C91.9986 51.06 91.7386 50.74 91.4053 50.52C91.072 50.3 90.6853 50.19 90.2453 50.19C89.752 50.19 89.3353 50.3133 88.9953 50.56C88.662 50.8067 88.4086 51.14 88.2353 51.56C88.0686 51.98 87.9853 52.4533 87.9853 52.98C87.9853 53.4733 88.0686 53.9367 88.2353 54.37C88.4086 54.8033 88.662 55.1567 88.9953 55.43C89.3353 55.6967 89.7553 55.83 90.2553 55.83ZM103.018 58C102.725 57.5867 102.428 57.1767 102.128 56.77C101.828 56.3633 101.532 55.96 101.238 55.56L100.108 54.01H99.3584V52.03H100.158L101.148 50.61C101.455 50.1833 101.758 49.7533 102.058 49.32C102.365 48.88 102.668 48.4467 102.968 48.02H106.438C105.958 48.6267 105.482 49.2267 105.008 49.82C104.535 50.4133 104.062 51.01 103.588 51.61L102.178 53.37L102.048 52.05L103.788 54.36C104.275 54.9667 104.758 55.5767 105.238 56.19C105.718 56.7967 106.198 57.4 106.678 58H103.018ZM96.6284 58C96.6284 57.2867 96.6284 56.5967 96.6284 55.93C96.6284 55.2567 96.6284 54.5067 96.6284 53.68V48.13C96.6284 47.3167 96.6284 46.5133 96.6284 45.72C96.6284 44.9267 96.6284 44.1333 96.6284 43.34L99.6184 43.08C99.6184 43.8667 99.6184 44.6767 99.6184 45.51C99.6184 46.3367 99.6184 47.21 99.6184 48.13V54.26C99.6184 54.9333 99.6184 55.5667 99.6184 56.16C99.6184 56.7467 99.6184 57.36 99.6184 58H96.6284ZM110.573 58.26C110.079 58.26 109.609 58.23 109.163 58.17C108.716 58.1167 108.306 58.04 107.933 57.94C107.559 57.8333 107.233 57.7133 106.953 57.58L107.143 55.05C107.436 55.23 107.763 55.39 108.123 55.53C108.489 55.6633 108.863 55.7667 109.243 55.84C109.629 55.9133 110.006 55.95 110.373 55.95C110.639 55.95 110.879 55.9267 111.093 55.88C111.306 55.8267 111.473 55.7367 111.593 55.61C111.713 55.4767 111.773 55.28 111.773 55.02C111.773 54.8333 111.706 54.68 111.573 54.56C111.446 54.44 111.229 54.33 110.923 54.23C110.623 54.1233 110.209 54.0033 109.683 53.87C109.089 53.7167 108.589 53.5233 108.183 53.29C107.776 53.05 107.469 52.7433 107.263 52.37C107.056 51.9967 106.953 51.52 106.953 50.94C106.953 49.9333 107.279 49.1533 107.933 48.6C108.593 48.04 109.489 47.76 110.623 47.76C111.116 47.76 111.589 47.7933 112.043 47.86C112.496 47.9267 112.906 48.0167 113.273 48.13C113.646 48.2367 113.959 48.3467 114.213 48.46L114.013 51.01C113.706 50.8167 113.373 50.6567 113.013 50.53C112.653 50.3967 112.306 50.2967 111.973 50.23C111.646 50.1633 111.376 50.13 111.163 50.13C110.949 50.13 110.753 50.16 110.573 50.22C110.399 50.2733 110.263 50.3633 110.163 50.49C110.063 50.6167 110.013 50.7833 110.013 50.99C110.013 51.1633 110.056 51.3167 110.143 51.45C110.229 51.5767 110.393 51.6967 110.633 51.81C110.873 51.9167 111.223 52.0333 111.683 52.16C112.403 52.3533 112.993 52.5633 113.453 52.79C113.913 53.01 114.253 53.2933 114.473 53.64C114.699 53.9867 114.813 54.4467 114.813 55.02C114.813 55.66 114.666 56.2267 114.373 56.72C114.086 57.2067 113.629 57.5867 113.003 57.86C112.383 58.1267 111.573 58.26 110.573 58.26Z" fill="#35364D"/>
</svg>
