<svg width="161" height="98" viewBox="0 0 161 98" fill="none" xmlns="http://www.w3.org/2000/svg">
<rect x="0.5" y="0.5" width="160" height="97" rx="24.5" fill="white" stroke="#DDDBEB"/>
<path d="M27.85 58C27.85 57.2067 27.85 56.4433 27.85 55.71C27.85 54.9767 27.85 54.17 27.85 53.29V48.51C27.85 47.61 27.85 46.79 27.85 46.05C27.85 45.3033 27.85 44.5333 27.85 43.74H29.66C29.66 44.5333 29.66 45.3033 29.66 46.05C29.66 46.79 29.66 47.61 29.66 48.51V53.01C29.66 53.89 29.66 54.6967 29.66 55.43C29.66 56.1633 29.66 56.9267 29.66 57.72L28.98 56.39H31.6C32.36 56.39 33.03 56.39 33.61 56.39C34.1967 56.39 34.7367 56.39 35.23 56.39C35.73 56.39 36.24 56.39 36.76 56.39V58H27.85ZM42.6553 58.22C41.8353 58.22 41.112 58.08 40.4853 57.8C39.8653 57.5133 39.3453 57.1267 38.9253 56.64C38.5053 56.1533 38.1853 55.5967 37.9653 54.97C37.752 54.3367 37.6453 53.6733 37.6453 52.98C37.6453 51.9867 37.8453 51.1067 38.2453 50.34C38.652 49.5667 39.2253 48.9567 39.9653 48.51C40.712 48.0633 41.5986 47.84 42.6253 47.84C43.4186 47.84 44.122 47.97 44.7353 48.23C45.3486 48.49 45.8686 48.8533 46.2953 49.32C46.722 49.7867 47.0453 50.3333 47.2653 50.96C47.4853 51.58 47.5953 52.2533 47.5953 52.98C47.5953 53.96 47.3953 54.8467 46.9953 55.64C46.5953 56.4333 46.0253 57.0633 45.2853 57.53C44.552 57.99 43.6753 58.22 42.6553 58.22ZM42.6553 56.78C43.382 56.78 43.9853 56.6 44.4653 56.24C44.9453 55.88 45.3053 55.41 45.5453 54.83C45.7853 54.25 45.9053 53.6333 45.9053 52.98C45.9053 52.2333 45.772 51.5833 45.5053 51.03C45.2386 50.4767 44.862 50.0467 44.3753 49.74C43.8886 49.4333 43.312 49.28 42.6453 49.28C41.9253 49.28 41.3186 49.4433 40.8253 49.77C40.332 50.0967 39.9586 50.54 39.7053 51.1C39.4586 51.66 39.3353 52.2867 39.3353 52.98C39.3353 53.6333 39.4553 54.25 39.6953 54.83C39.942 55.41 40.312 55.88 40.8053 56.24C41.2986 56.6 41.9153 56.78 42.6553 56.78ZM51.6469 58C51.4135 57.38 51.1769 56.75 50.9369 56.11C50.7035 55.47 50.4735 54.85 50.2469 54.25L49.5869 52.49C49.3135 51.7633 49.0369 51.03 48.7569 50.29C48.4835 49.5433 48.2135 48.8067 47.9469 48.08L49.7169 48.01C50.0102 48.85 50.2935 49.6833 50.5669 50.51C50.8469 51.3367 51.1302 52.17 51.4169 53.01L52.5069 56.19H52.6769L53.7669 53C54.0602 52.1533 54.3435 51.3233 54.6169 50.51C54.8969 49.69 55.1735 48.88 55.4469 48.08H57.2069C56.9335 48.8067 56.6569 49.5433 56.3769 50.29C56.1035 51.0367 55.8335 51.7767 55.5669 52.51L54.9069 54.29C54.6735 54.9167 54.4435 55.5367 54.2169 56.15C53.9902 56.7567 53.7602 57.3733 53.5269 58H51.6469ZM62.7492 58.22C61.5626 58.22 60.5859 57.9933 59.8192 57.54C59.0526 57.0867 58.4826 56.4667 58.1092 55.68C57.7359 54.8933 57.5492 53.9933 57.5492 52.98C57.5492 51.98 57.7326 51.0933 58.0992 50.32C58.4659 49.5467 58.9926 48.9433 59.6792 48.51C60.3659 48.07 61.1859 47.85 62.1392 47.85C62.9792 47.85 63.6992 48.0133 64.2992 48.34C64.9059 48.6667 65.3726 49.1467 65.6992 49.78C66.0259 50.4067 66.1892 51.1833 66.1892 52.11C66.1892 52.3567 66.1826 52.58 66.1692 52.78C66.1626 52.9733 66.1426 53.17 66.1092 53.37L64.6592 52.64C64.6726 52.5333 64.6792 52.4333 64.6792 52.34C64.6859 52.24 64.6892 52.1433 64.6892 52.05C64.6892 51.11 64.4559 50.3967 63.9892 49.91C63.5226 49.4167 62.9126 49.17 62.1592 49.17C61.5526 49.17 61.0292 49.3267 60.5892 49.64C60.1559 49.9467 59.8192 50.3733 59.5792 50.92C59.3392 51.4667 59.2192 52.09 59.2192 52.79V53.02C59.2192 53.7933 59.3526 54.46 59.6192 55.02C59.8859 55.58 60.2892 56.0133 60.8292 56.32C61.3759 56.62 62.0692 56.77 62.9092 56.77C63.2226 56.77 63.5526 56.7467 63.8992 56.7C64.2526 56.6467 64.5992 56.5667 64.9392 56.46C65.2859 56.3533 65.6159 56.2133 65.9292 56.04L65.9992 57.53C65.7459 57.67 65.4526 57.7933 65.1192 57.9C64.7859 58 64.4192 58.0767 64.0192 58.13C63.6192 58.19 63.1959 58.22 62.7492 58.22ZM58.2392 53.37V52.19L65.0992 52.13L66.1092 52.51V53.37H58.2392ZM67.6961 58C67.6961 57.2333 67.6961 56.49 67.6961 55.77C67.6961 55.05 67.6961 54.2433 67.6961 53.35V48.51C67.6961 47.59 67.6961 46.76 67.6961 46.02C67.6961 45.28 67.6961 44.52 67.6961 43.74C68.1294 43.74 68.6394 43.74 69.2261 43.74C69.8194 43.74 70.4528 43.74 71.1261 43.74C71.7994 43.74 72.4794 43.74 73.1661 43.74C74.3261 43.74 75.3061 43.87 76.1061 44.13C76.9128 44.3833 77.5228 44.81 77.9361 45.41C78.3561 46.01 78.5661 46.8267 78.5661 47.86C78.5661 48.68 78.4028 49.4167 78.0761 50.07C77.7561 50.7233 77.2394 51.24 76.5261 51.62C75.8128 52 74.8794 52.19 73.7261 52.19L74.9961 50.99L76.9361 53.85C77.2361 54.29 77.5561 54.7633 77.8961 55.27C78.2361 55.77 78.5661 56.26 78.8861 56.74C79.2128 57.2133 79.4994 57.6333 79.7461 58H76.0161C75.6561 57.44 75.3094 56.9033 74.9761 56.39C74.6428 55.8767 74.3194 55.3767 74.0061 54.89L71.6961 51.25L73.6461 52.74H70.3361V50.39H72.7161C73.2494 50.39 73.6961 50.3267 74.0561 50.2C74.4228 50.0667 74.6994 49.8433 74.8861 49.53C75.0728 49.2167 75.1661 48.7867 75.1661 48.24C75.1661 47.8333 75.1061 47.5067 74.9861 47.26C74.8661 47.0067 74.7028 46.81 74.4961 46.67C74.2961 46.53 74.0694 46.4367 73.8161 46.39C73.5694 46.3433 73.3194 46.32 73.0661 46.32H68.5861L70.9261 44.26C70.9261 45.0667 70.9261 45.84 70.9261 46.58C70.9261 47.3133 70.9261 48.13 70.9261 49.03V53.35C70.9261 54.2433 70.9261 55.05 70.9261 55.77C70.9261 56.49 70.9261 57.2333 70.9261 58H67.6961ZM84.8316 58.26C83.5449 58.26 82.4916 58.0333 81.6716 57.58C80.8582 57.1267 80.2582 56.5033 79.8716 55.71C79.4916 54.9167 79.3016 54.0067 79.3016 52.98C79.3016 51.9533 79.4816 51.0467 79.8416 50.26C80.2016 49.4733 80.7382 48.86 81.4516 48.42C82.1716 47.9733 83.0649 47.75 84.1316 47.75C85.0382 47.75 85.8149 47.9133 86.4616 48.24C87.1082 48.56 87.6049 49.0467 87.9516 49.7C88.2982 50.3533 88.4716 51.1767 88.4716 52.17C88.4716 52.4367 88.4649 52.6733 88.4516 52.88C88.4382 53.0867 88.4149 53.2933 88.3816 53.5L85.8216 52.53C85.8349 52.4433 85.8449 52.3533 85.8516 52.26C85.8582 52.1667 85.8616 52.08 85.8616 52C85.8616 51.3267 85.7016 50.8 85.3816 50.42C85.0682 50.0333 84.6616 49.84 84.1616 49.84C83.7816 49.84 83.4449 49.9533 83.1516 50.18C82.8582 50.4 82.6282 50.71 82.4616 51.11C82.2949 51.51 82.2116 51.9867 82.2116 52.54V53.03C82.2116 53.61 82.3149 54.1067 82.5216 54.52C82.7349 54.9333 83.0616 55.25 83.5016 55.47C83.9416 55.69 84.5049 55.8 85.1916 55.8C85.4582 55.8 85.7649 55.7767 86.1116 55.73C86.4649 55.6767 86.8216 55.6 87.1816 55.5C87.5482 55.3933 87.8882 55.26 88.2016 55.1L88.3016 57.62C88.0416 57.74 87.7382 57.85 87.3916 57.95C87.0516 58.0433 86.6649 58.1167 86.2316 58.17C85.7982 58.23 85.3316 58.26 84.8316 58.26ZM80.4516 53.5V51.9L86.6416 51.77L88.3816 52.26V53.5H80.4516ZM91.9089 58.24C91.3356 58.24 90.8356 58.12 90.4089 57.88C89.9822 57.64 89.6489 57.3033 89.4089 56.87C89.1689 56.43 89.0489 55.91 89.0489 55.31C89.0489 54.7433 89.1489 54.27 89.3489 53.89C89.5489 53.5033 89.8056 53.19 90.1189 52.95C90.4389 52.71 90.7856 52.5267 91.1589 52.4C91.5389 52.2733 91.9089 52.18 92.2689 52.12L95.0489 51.69C95.0622 51.3033 94.9889 51.0033 94.8289 50.79C94.6689 50.57 94.4356 50.4167 94.1289 50.33C93.8289 50.2433 93.4689 50.2 93.0489 50.2C92.8222 50.2 92.5756 50.22 92.3089 50.26C92.0422 50.2933 91.7622 50.3467 91.4689 50.42C91.1822 50.4933 90.8822 50.5833 90.5689 50.69C90.2622 50.7967 89.9522 50.9267 89.6389 51.08L89.4989 48.53C89.7456 48.4433 90.0289 48.3533 90.3489 48.26C90.6689 48.1667 91.0156 48.0833 91.3889 48.01C91.7622 47.93 92.1556 47.8667 92.5689 47.82C92.9889 47.7733 93.4189 47.75 93.8589 47.75C94.6922 47.75 95.4022 47.8733 95.9889 48.12C96.5822 48.36 97.0356 48.74 97.3489 49.26C97.6622 49.78 97.8189 50.46 97.8189 51.3C97.8189 51.6267 97.8189 52.0267 97.8189 52.5C97.8189 52.9733 97.8189 53.3967 97.8189 53.77V54.72C97.8189 55.2267 97.8189 55.75 97.8189 56.29C97.8189 56.8233 97.8189 57.3933 97.8189 58H95.2689L95.0789 56.67H94.8489C94.6689 56.9233 94.4422 57.1733 94.1689 57.42C93.8956 57.66 93.5689 57.8567 93.1889 58.01C92.8156 58.1633 92.3889 58.24 91.9089 58.24ZM93.0989 55.93C93.3322 55.93 93.5656 55.8767 93.7989 55.77C94.0322 55.6567 94.2489 55.5 94.4489 55.3C94.6489 55.0933 94.8222 54.85 94.9689 54.57V53.04C94.8889 53.1 94.7856 53.1567 94.6589 53.21C94.5389 53.2567 94.3589 53.31 94.1189 53.37C93.8856 53.4233 93.5589 53.4933 93.1389 53.58C92.8989 53.6267 92.6922 53.7067 92.5189 53.82C92.3456 53.9333 92.2089 54.08 92.1089 54.26C92.0156 54.4333 91.9689 54.64 91.9689 54.88C91.9689 55.26 92.0822 55.53 92.3089 55.69C92.5422 55.85 92.8056 55.93 93.0989 55.93ZM102.806 58.27C101.892 58.27 101.139 58.0233 100.546 57.53C99.9524 57.0367 99.5124 56.39 99.2258 55.59C98.9391 54.79 98.7958 53.9267 98.7958 53C98.7958 52.0067 98.9458 51.1133 99.2458 50.32C99.5524 49.5267 100.006 48.9 100.606 48.44C101.206 47.98 101.949 47.75 102.836 47.75C103.229 47.75 103.592 47.8033 103.926 47.91C104.259 48.01 104.552 48.1567 104.806 48.35C105.066 48.5433 105.286 48.7733 105.466 49.04H105.706V48.13C105.706 47.3167 105.706 46.5167 105.706 45.73C105.706 44.9367 105.706 44.14 105.706 43.34L108.686 43.08C108.686 43.8667 108.686 44.6767 108.686 45.51C108.686 46.3367 108.686 47.21 108.686 48.13V53.68C108.686 54.5067 108.686 55.2567 108.686 55.93C108.686 56.5967 108.686 57.2867 108.686 58H106.156L105.976 56.69H105.766C105.526 57.03 105.256 57.3167 104.956 57.55C104.662 57.7833 104.336 57.96 103.976 58.08C103.622 58.2067 103.232 58.27 102.806 58.27ZM103.936 55.73C104.209 55.73 104.456 55.6833 104.676 55.59C104.902 55.4967 105.099 55.3667 105.266 55.2C105.439 55.0333 105.586 54.8367 105.706 54.61V51.21C105.572 51.0233 105.412 50.8633 105.226 50.73C105.046 50.5967 104.846 50.4967 104.626 50.43C104.406 50.3567 104.179 50.32 103.946 50.32C103.479 50.32 103.089 50.4433 102.776 50.69C102.469 50.9367 102.236 51.2667 102.076 51.68C101.922 52.0867 101.846 52.5333 101.846 53.02C101.846 53.4867 101.919 53.9267 102.066 54.34C102.219 54.7467 102.449 55.08 102.756 55.34C103.069 55.6 103.462 55.73 103.936 55.73ZM110.265 58C110.265 57.2867 110.265 56.5967 110.265 55.93C110.265 55.2567 110.265 54.5067 110.265 53.68V52.68C110.265 52.02 110.265 51.43 110.265 50.91C110.265 50.3833 110.265 49.89 110.265 49.43C110.265 48.9633 110.265 48.4933 110.265 48.02L113.255 47.93C113.255 48.41 113.255 48.8867 113.255 49.36C113.255 49.8333 113.255 50.3367 113.255 50.87C113.255 51.4033 113.255 52.0067 113.255 52.68V53.68C113.255 54.5067 113.255 55.2567 113.255 55.93C113.255 56.5967 113.255 57.2867 113.255 58H110.265ZM111.735 46.48C111.182 46.48 110.738 46.35 110.405 46.09C110.078 45.8233 109.915 45.3933 109.915 44.8C109.915 44.2667 110.078 43.86 110.405 43.58C110.738 43.2933 111.188 43.15 111.755 43.15C112.322 43.15 112.765 43.3 113.085 43.6C113.412 43.8933 113.575 44.2933 113.575 44.8C113.575 45.3933 113.412 45.8233 113.085 46.09C112.758 46.35 112.308 46.48 111.735 46.48ZM114.971 58C114.971 57.2867 114.971 56.5967 114.971 55.93C114.971 55.2567 114.971 54.5067 114.971 53.68V52.68C114.971 51.9133 114.971 51.1433 114.971 50.37C114.971 49.5967 114.971 48.8133 114.971 48.02L117.481 47.87L117.611 49.61H117.861C118.088 49.2833 118.361 48.98 118.681 48.7C119.001 48.4133 119.368 48.1833 119.781 48.01C120.201 47.8367 120.678 47.75 121.211 47.75C122.211 47.75 122.968 48.0467 123.481 48.64C123.995 49.2267 124.251 50.1067 124.251 51.28C124.251 51.72 124.251 52.13 124.251 52.51C124.251 52.8833 124.251 53.2733 124.251 53.68C124.251 54.4933 124.251 55.24 124.251 55.92C124.251 56.5933 124.251 57.2867 124.251 58H121.271C121.271 57.2867 121.271 56.5967 121.271 55.93C121.271 55.2633 121.271 54.5667 121.271 53.84V52.24C121.271 51.6533 121.175 51.2133 120.981 50.92C120.788 50.62 120.441 50.47 119.941 50.47C119.655 50.47 119.391 50.53 119.151 50.65C118.911 50.7633 118.691 50.92 118.491 51.12C118.291 51.3133 118.115 51.53 117.961 51.77V53.84C117.961 54.5867 117.961 55.29 117.961 55.95C117.961 56.6033 117.961 57.2867 117.961 58H114.971ZM129.284 62.09C128.531 62.09 127.897 62.0267 127.384 61.9C126.877 61.7733 126.474 61.6 126.174 61.38C125.874 61.1667 125.657 60.92 125.524 60.64C125.397 60.3667 125.334 60.0833 125.334 59.79C125.334 59.35 125.441 58.9867 125.654 58.7C125.867 58.42 126.117 58.2 126.404 58.04C126.697 57.88 126.954 57.7667 127.174 57.7V57.5C127.034 57.4667 126.877 57.39 126.704 57.27C126.537 57.15 126.391 56.9867 126.264 56.78C126.137 56.5733 126.074 56.32 126.074 56.02C126.074 55.8 126.114 55.5867 126.194 55.38C126.281 55.1733 126.414 54.9833 126.594 54.81C126.774 54.6367 127.011 54.49 127.304 54.37V54.17C127.091 54.0833 126.861 53.96 126.614 53.8C126.367 53.64 126.134 53.4367 125.914 53.19C125.694 52.9367 125.514 52.6367 125.374 52.29C125.234 51.9433 125.164 51.5367 125.164 51.07C125.164 50.45 125.317 49.89 125.624 49.39C125.937 48.8833 126.407 48.4833 127.034 48.19C127.667 47.8967 128.464 47.75 129.424 47.75C129.797 47.75 130.124 47.77 130.404 47.81C130.684 47.8433 130.974 47.88 131.274 47.92C131.574 47.96 131.951 47.98 132.404 47.98H135.144V49.95C134.524 49.95 133.931 49.95 133.364 49.95C132.797 49.95 132.221 49.95 131.634 49.95L132.414 48.71C132.841 48.99 133.154 49.3433 133.354 49.77C133.561 50.19 133.664 50.67 133.664 51.21C133.664 51.8567 133.521 52.4 133.234 52.84C132.947 53.28 132.557 53.6333 132.064 53.9C131.577 54.1667 131.034 54.3633 130.434 54.49C129.881 54.61 129.471 54.72 129.204 54.82C128.937 54.92 128.804 55.07 128.804 55.27C128.804 55.3967 128.861 55.4967 128.974 55.57C129.087 55.6433 129.264 55.6967 129.504 55.73C129.744 55.7567 130.054 55.77 130.434 55.77H130.834C131.681 55.77 132.407 55.8433 133.014 55.99C133.621 56.1367 134.084 56.3967 134.404 56.77C134.731 57.1433 134.894 57.66 134.894 58.32C134.894 59.0067 134.727 59.59 134.394 60.07C134.061 60.55 133.617 60.9367 133.064 61.23C132.511 61.53 131.904 61.7467 131.244 61.88C130.591 62.02 129.937 62.09 129.284 62.09ZM129.654 60.03C130.207 60.03 130.664 59.96 131.024 59.82C131.391 59.68 131.661 59.5167 131.834 59.33C132.014 59.15 132.104 58.9933 132.104 58.86C132.104 58.6933 132.047 58.55 131.934 58.43C131.827 58.31 131.621 58.2167 131.314 58.15C131.007 58.09 130.564 58.06 129.984 58.06H129.674C129.401 58.0733 129.124 58.1233 128.844 58.21C128.571 58.3033 128.341 58.4267 128.154 58.58C127.974 58.7333 127.884 58.91 127.884 59.11C127.884 59.23 127.917 59.3433 127.984 59.45C128.057 59.5633 128.164 59.6633 128.304 59.75C128.444 59.8367 128.627 59.9033 128.854 59.95C129.081 60.0033 129.347 60.03 129.654 60.03ZM129.374 52.83C129.547 52.8167 129.731 52.78 129.924 52.72C130.124 52.66 130.311 52.58 130.484 52.48C130.657 52.3733 130.797 52.24 130.904 52.08C131.011 51.9133 131.064 51.7167 131.064 51.49C131.064 51.1833 130.984 50.93 130.824 50.73C130.664 50.53 130.461 50.38 130.214 50.28C129.967 50.18 129.707 50.13 129.434 50.13C129.167 50.13 128.917 50.18 128.684 50.28C128.451 50.38 128.261 50.5267 128.114 50.72C127.967 50.9067 127.894 51.1333 127.894 51.4C127.894 51.66 127.964 51.89 128.104 52.09C128.244 52.2833 128.424 52.4433 128.644 52.57C128.871 52.6967 129.114 52.7833 129.374 52.83Z" fill="#35364D"/>
</svg>
