<svg width="161" height="98" viewBox="0 0 161 98" fill="none" xmlns="http://www.w3.org/2000/svg">
<rect x="0.5" y="0.5" width="160" height="97" rx="24.5" fill="white" stroke="#DDDBEB"/>
<path d="M51.29 58C50.6233 58 50.0067 58 49.44 58C48.8733 58 48.37 58 47.93 58C47.49 58 47.13 58 46.85 58C46.85 57.2067 46.85 56.4433 46.85 55.71C46.85 54.9767 46.85 54.17 46.85 53.29V48.5C46.85 47.6133 46.85 46.7967 46.85 46.05C46.85 45.3033 46.85 44.5333 46.85 43.74C47.6033 43.74 48.4267 43.74 49.32 43.74C50.22 43.74 51.1433 43.74 52.09 43.74C52.9233 43.74 53.63 43.82 54.21 43.98C54.7967 44.1333 55.2733 44.3567 55.64 44.65C56.0067 44.9367 56.2767 45.2867 56.45 45.7C56.6233 46.1133 56.71 46.58 56.71 47.1C56.71 47.7067 56.6 48.2367 56.38 48.69C56.16 49.1433 55.86 49.52 55.48 49.82C55.1067 50.12 54.68 50.3433 54.2 50.49V50.67C54.6933 50.7633 55.16 50.9367 55.6 51.19C56.04 51.4433 56.3967 51.8067 56.67 52.28C56.9433 52.7467 57.08 53.3467 57.08 54.08C57.08 54.64 56.9833 55.16 56.79 55.64C56.6033 56.1133 56.29 56.5267 55.85 56.88C55.4167 57.2333 54.8267 57.51 54.08 57.71C53.34 57.9033 52.41 58 51.29 58ZM48.62 56.5H51.43C52.3367 56.5 53.0667 56.3967 53.62 56.19C54.18 55.9833 54.5833 55.69 54.83 55.31C55.0833 54.93 55.21 54.4767 55.21 53.95C55.21 53.0767 54.9033 52.4533 54.29 52.08C53.6767 51.7 52.8167 51.51 51.71 51.51H48.22V50.06H51.71C52.4433 50.06 53.04 49.94 53.5 49.7C53.9667 49.46 54.3067 49.1467 54.52 48.76C54.7333 48.3733 54.84 47.95 54.84 47.49C54.84 46.71 54.5967 46.14 54.11 45.78C53.63 45.42 52.9133 45.24 51.96 45.24H48.62C48.62 45.82 48.62 46.3967 48.62 46.97C48.62 47.5433 48.62 48.1733 48.62 48.86V52.95C48.62 53.6233 48.62 54.24 48.62 54.8C48.62 55.36 48.62 55.9267 48.62 56.5ZM63.1202 58.22C62.3002 58.22 61.5768 58.08 60.9502 57.8C60.3302 57.5133 59.8102 57.1267 59.3902 56.64C58.9702 56.1533 58.6502 55.5967 58.4302 54.97C58.2168 54.3367 58.1102 53.6733 58.1102 52.98C58.1102 51.9867 58.3102 51.1067 58.7102 50.34C59.1168 49.5667 59.6902 48.9567 60.4302 48.51C61.1768 48.0633 62.0635 47.84 63.0902 47.84C63.8835 47.84 64.5868 47.97 65.2002 48.23C65.8135 48.49 66.3335 48.8533 66.7602 49.32C67.1868 49.7867 67.5102 50.3333 67.7302 50.96C67.9502 51.58 68.0602 52.2533 68.0602 52.98C68.0602 53.96 67.8602 54.8467 67.4602 55.64C67.0602 56.4333 66.4902 57.0633 65.7502 57.53C65.0168 57.99 64.1402 58.22 63.1202 58.22ZM63.1202 56.78C63.8468 56.78 64.4502 56.6 64.9302 56.24C65.4102 55.88 65.7702 55.41 66.0102 54.83C66.2502 54.25 66.3702 53.6333 66.3702 52.98C66.3702 52.2333 66.2368 51.5833 65.9702 51.03C65.7035 50.4767 65.3268 50.0467 64.8402 49.74C64.3535 49.4333 63.7768 49.28 63.1102 49.28C62.3902 49.28 61.7835 49.4433 61.2902 49.77C60.7968 50.0967 60.4235 50.54 60.1702 51.1C59.9235 51.66 59.8002 52.2867 59.8002 52.98C59.8002 53.6333 59.9202 54.25 60.1602 54.83C60.4068 55.41 60.7768 55.88 61.2702 56.24C61.7635 56.6 62.3802 56.78 63.1202 56.78ZM74.2733 58.22C73.4533 58.22 72.7299 58.08 72.1033 57.8C71.4833 57.5133 70.9633 57.1267 70.5433 56.64C70.1233 56.1533 69.8033 55.5967 69.5833 54.97C69.3699 54.3367 69.2633 53.6733 69.2633 52.98C69.2633 51.9867 69.4633 51.1067 69.8633 50.34C70.2699 49.5667 70.8433 48.9567 71.5833 48.51C72.3299 48.0633 73.2166 47.84 74.2433 47.84C75.0366 47.84 75.7399 47.97 76.3533 48.23C76.9666 48.49 77.4866 48.8533 77.9133 49.32C78.3399 49.7867 78.6633 50.3333 78.8833 50.96C79.1033 51.58 79.2133 52.2533 79.2133 52.98C79.2133 53.96 79.0133 54.8467 78.6133 55.64C78.2133 56.4333 77.6433 57.0633 76.9033 57.53C76.1699 57.99 75.2933 58.22 74.2733 58.22ZM74.2733 56.78C74.9999 56.78 75.6033 56.6 76.0833 56.24C76.5633 55.88 76.9233 55.41 77.1633 54.83C77.4033 54.25 77.5233 53.6333 77.5233 52.98C77.5233 52.2333 77.3899 51.5833 77.1233 51.03C76.8566 50.4767 76.4799 50.0467 75.9933 49.74C75.5066 49.4333 74.9299 49.28 74.2633 49.28C73.5433 49.28 72.9366 49.4433 72.4433 49.77C71.9499 50.0967 71.5766 50.54 71.3233 51.1C71.0766 51.66 70.9533 52.2867 70.9533 52.98C70.9533 53.6333 71.0733 54.25 71.3133 54.83C71.5599 55.41 71.9299 55.88 72.4233 56.24C72.9166 56.6 73.5333 56.78 74.2733 56.78ZM87.7164 58C87.2697 57.5467 86.8164 57.0933 86.3564 56.64C85.9031 56.1867 85.4531 55.7367 85.0064 55.29L83.2964 53.58H82.5964V52.4H83.3964L84.8364 50.87C85.2764 50.41 85.7197 49.9467 86.1664 49.48C86.6131 49.0067 87.0531 48.54 87.4864 48.08H89.5264C88.9531 48.66 88.3831 49.24 87.8164 49.82C87.2497 50.4 86.6864 50.98 86.1264 51.56L84.4364 53.28L84.3764 52.48L86.3364 54.5C86.9297 55.0867 87.5197 55.6733 88.1064 56.26C88.6997 56.84 89.2864 57.42 89.8664 58H87.7164ZM81.1364 58C81.1364 57.26 81.1364 56.55 81.1364 55.87C81.1364 55.19 81.1364 54.44 81.1364 53.62V48.13C81.1364 47.29 81.1364 46.4733 81.1364 45.68C81.1364 44.8867 81.1364 44.1133 81.1364 43.36L82.7864 43.16C82.7864 43.9533 82.7864 44.76 82.7864 45.58C82.7864 46.3933 82.7864 47.2433 82.7864 48.13V53.88C82.7864 54.6267 82.7864 55.3233 82.7864 55.97C82.7864 56.6167 82.7864 57.2933 82.7864 58H81.1364ZM90.8662 58C90.8662 57.2333 90.8662 56.49 90.8662 55.77C90.8662 55.05 90.8662 54.2433 90.8662 53.35V48.51C90.8662 47.59 90.8662 46.76 90.8662 46.02C90.8662 45.28 90.8662 44.52 90.8662 43.74H94.1562C94.1562 44.52 94.1562 45.28 94.1562 46.02C94.1562 46.76 94.1562 47.59 94.1562 48.51V52.82C94.1562 53.7133 94.1562 54.52 94.1562 55.24C94.1562 55.96 94.1562 56.7033 94.1562 57.47L93.0162 55.13H95.8062C96.4996 55.13 97.1062 55.13 97.6262 55.13C98.1529 55.13 98.6396 55.13 99.0862 55.13C99.5396 55.13 100.003 55.13 100.476 55.13V58H90.8662ZM101.548 58C101.548 57.2867 101.548 56.5967 101.548 55.93C101.548 55.2567 101.548 54.5067 101.548 53.68V52.68C101.548 52.02 101.548 51.43 101.548 50.91C101.548 50.3833 101.548 49.89 101.548 49.43C101.548 48.9633 101.548 48.4933 101.548 48.02L104.538 47.93C104.538 48.41 104.538 48.8867 104.538 49.36C104.538 49.8333 104.538 50.3367 104.538 50.87C104.538 51.4033 104.538 52.0067 104.538 52.68V53.68C104.538 54.5067 104.538 55.2567 104.538 55.93C104.538 56.5967 104.538 57.2867 104.538 58H101.548ZM103.018 46.48C102.464 46.48 102.021 46.35 101.688 46.09C101.361 45.8233 101.198 45.3933 101.198 44.8C101.198 44.2667 101.361 43.86 101.688 43.58C102.021 43.2933 102.471 43.15 103.038 43.15C103.604 43.15 104.048 43.3 104.368 43.6C104.694 43.8933 104.858 44.2933 104.858 44.8C104.858 45.3933 104.694 45.8233 104.368 46.09C104.041 46.35 103.591 46.48 103.018 46.48ZM109.514 58.26C109.021 58.26 108.551 58.23 108.104 58.17C107.658 58.1167 107.248 58.04 106.874 57.94C106.501 57.8333 106.174 57.7133 105.894 57.58L106.084 55.05C106.378 55.23 106.704 55.39 107.064 55.53C107.431 55.6633 107.804 55.7667 108.184 55.84C108.571 55.9133 108.948 55.95 109.314 55.95C109.581 55.95 109.821 55.9267 110.034 55.88C110.248 55.8267 110.414 55.7367 110.534 55.61C110.654 55.4767 110.714 55.28 110.714 55.02C110.714 54.8333 110.648 54.68 110.514 54.56C110.388 54.44 110.171 54.33 109.864 54.23C109.564 54.1233 109.151 54.0033 108.624 53.87C108.031 53.7167 107.531 53.5233 107.124 53.29C106.718 53.05 106.411 52.7433 106.204 52.37C105.998 51.9967 105.894 51.52 105.894 50.94C105.894 49.9333 106.221 49.1533 106.874 48.6C107.534 48.04 108.431 47.76 109.564 47.76C110.058 47.76 110.531 47.7933 110.984 47.86C111.438 47.9267 111.848 48.0167 112.214 48.13C112.588 48.2367 112.901 48.3467 113.154 48.46L112.954 51.01C112.648 50.8167 112.314 50.6567 111.954 50.53C111.594 50.3967 111.248 50.2967 110.914 50.23C110.588 50.1633 110.318 50.13 110.104 50.13C109.891 50.13 109.694 50.16 109.514 50.22C109.341 50.2733 109.204 50.3633 109.104 50.49C109.004 50.6167 108.954 50.7833 108.954 50.99C108.954 51.1633 108.998 51.3167 109.084 51.45C109.171 51.5767 109.334 51.6967 109.574 51.81C109.814 51.9167 110.164 52.0333 110.624 52.16C111.344 52.3533 111.934 52.5633 112.394 52.79C112.854 53.01 113.194 53.2933 113.414 53.64C113.641 53.9867 113.754 54.4467 113.754 55.02C113.754 55.66 113.608 56.2267 113.314 56.72C113.028 57.2067 112.571 57.5867 111.944 57.86C111.324 58.1267 110.514 58.26 109.514 58.26ZM118.923 58.27C118.183 58.27 117.55 58.16 117.023 57.94C116.503 57.7133 116.103 57.3533 115.823 56.86C115.55 56.3667 115.413 55.7167 115.413 54.91C115.413 54.4767 115.413 54.0333 115.413 53.58C115.413 53.12 115.413 52.64 115.413 52.14C115.413 51.64 115.413 51.1133 115.413 50.56C115.413 50.0067 115.413 49.41 115.413 48.77C115.413 48.0167 115.413 47.3267 115.413 46.7C115.413 46.0733 115.413 45.4333 115.413 44.78L118.353 44.25C118.353 44.77 118.353 45.2633 118.353 45.73C118.353 46.19 118.353 46.6667 118.353 47.16C118.353 47.6467 118.353 48.1833 118.353 48.77V53.97C118.353 54.5767 118.463 55.04 118.683 55.36C118.91 55.6733 119.277 55.83 119.783 55.83C119.997 55.83 120.23 55.7933 120.483 55.72C120.737 55.64 120.98 55.5167 121.213 55.35L121.383 57.77C121.21 57.8767 120.99 57.9667 120.723 58.04C120.457 58.1133 120.167 58.17 119.853 58.21C119.54 58.25 119.23 58.27 118.923 58.27ZM113.793 50.27V48.02H121.333V50.27C120.707 50.27 120.077 50.27 119.443 50.27C118.817 50.27 118.21 50.27 117.623 50.27H116.293H113.793Z" fill="#35364D"/>
</svg>
