<svg width="162" height="98" viewBox="0 0 162 98" fill="none" xmlns="http://www.w3.org/2000/svg">
<rect x="0.5" y="0.5" width="161" height="97" rx="24.5" fill="white" stroke="#DDDBEB"/>
<path d="M52.29 58C51.6233 58 51.0067 58 50.44 58C49.8733 58 49.37 58 48.93 58C48.49 58 48.13 58 47.85 58C47.85 57.2067 47.85 56.4433 47.85 55.71C47.85 54.9767 47.85 54.17 47.85 53.29V48.5C47.85 47.6133 47.85 46.7967 47.85 46.05C47.85 45.3033 47.85 44.5333 47.85 43.74C48.6033 43.74 49.4267 43.74 50.32 43.74C51.22 43.74 52.1433 43.74 53.09 43.74C53.9233 43.74 54.63 43.82 55.21 43.98C55.7967 44.1333 56.2733 44.3567 56.64 44.65C57.0067 44.9367 57.2767 45.2867 57.45 45.7C57.6233 46.1133 57.71 46.58 57.71 47.1C57.71 47.7067 57.6 48.2367 57.38 48.69C57.16 49.1433 56.86 49.52 56.48 49.82C56.1067 50.12 55.68 50.3433 55.2 50.49V50.67C55.6933 50.7633 56.16 50.9367 56.6 51.19C57.04 51.4433 57.3967 51.8067 57.67 52.28C57.9433 52.7467 58.08 53.3467 58.08 54.08C58.08 54.64 57.9833 55.16 57.79 55.64C57.6033 56.1133 57.29 56.5267 56.85 56.88C56.4167 57.2333 55.8267 57.51 55.08 57.71C54.34 57.9033 53.41 58 52.29 58ZM49.62 56.5H52.43C53.3367 56.5 54.0667 56.3967 54.62 56.19C55.18 55.9833 55.5833 55.69 55.83 55.31C56.0833 54.93 56.21 54.4767 56.21 53.95C56.21 53.0767 55.9033 52.4533 55.29 52.08C54.6767 51.7 53.8167 51.51 52.71 51.51H49.22V50.06H52.71C53.4433 50.06 54.04 49.94 54.5 49.7C54.9667 49.46 55.3067 49.1467 55.52 48.76C55.7333 48.3733 55.84 47.95 55.84 47.49C55.84 46.71 55.5967 46.14 55.11 45.78C54.63 45.42 53.9133 45.24 52.96 45.24H49.62C49.62 45.82 49.62 46.3967 49.62 46.97C49.62 47.5433 49.62 48.1733 49.62 48.86V52.95C49.62 53.6233 49.62 54.24 49.62 54.8C49.62 55.36 49.62 55.9267 49.62 56.5ZM64.1202 58.22C63.3002 58.22 62.5768 58.08 61.9502 57.8C61.3302 57.5133 60.8102 57.1267 60.3902 56.64C59.9702 56.1533 59.6502 55.5967 59.4302 54.97C59.2168 54.3367 59.1102 53.6733 59.1102 52.98C59.1102 51.9867 59.3102 51.1067 59.7102 50.34C60.1168 49.5667 60.6902 48.9567 61.4302 48.51C62.1768 48.0633 63.0635 47.84 64.0902 47.84C64.8835 47.84 65.5868 47.97 66.2002 48.23C66.8135 48.49 67.3335 48.8533 67.7602 49.32C68.1868 49.7867 68.5102 50.3333 68.7302 50.96C68.9502 51.58 69.0602 52.2533 69.0602 52.98C69.0602 53.96 68.8602 54.8467 68.4602 55.64C68.0602 56.4333 67.4902 57.0633 66.7502 57.53C66.0168 57.99 65.1402 58.22 64.1202 58.22ZM64.1202 56.78C64.8468 56.78 65.4502 56.6 65.9302 56.24C66.4102 55.88 66.7702 55.41 67.0102 54.83C67.2502 54.25 67.3702 53.6333 67.3702 52.98C67.3702 52.2333 67.2368 51.5833 66.9702 51.03C66.7035 50.4767 66.3268 50.0467 65.8402 49.74C65.3535 49.4333 64.7768 49.28 64.1102 49.28C63.3902 49.28 62.7835 49.4433 62.2902 49.77C61.7968 50.0967 61.4235 50.54 61.1702 51.1C60.9235 51.66 60.8002 52.2867 60.8002 52.98C60.8002 53.6333 60.9202 54.25 61.1602 54.83C61.4068 55.41 61.7768 55.88 62.2702 56.24C62.7635 56.6 63.3802 56.78 64.1202 56.78ZM75.2733 58.22C74.4533 58.22 73.7299 58.08 73.1033 57.8C72.4833 57.5133 71.9633 57.1267 71.5433 56.64C71.1233 56.1533 70.8033 55.5967 70.5833 54.97C70.3699 54.3367 70.2633 53.6733 70.2633 52.98C70.2633 51.9867 70.4633 51.1067 70.8633 50.34C71.2699 49.5667 71.8433 48.9567 72.5833 48.51C73.3299 48.0633 74.2166 47.84 75.2433 47.84C76.0366 47.84 76.7399 47.97 77.3533 48.23C77.9666 48.49 78.4866 48.8533 78.9133 49.32C79.3399 49.7867 79.6633 50.3333 79.8833 50.96C80.1033 51.58 80.2133 52.2533 80.2133 52.98C80.2133 53.96 80.0133 54.8467 79.6133 55.64C79.2133 56.4333 78.6433 57.0633 77.9033 57.53C77.1699 57.99 76.2933 58.22 75.2733 58.22ZM75.2733 56.78C75.9999 56.78 76.6033 56.6 77.0833 56.24C77.5633 55.88 77.9233 55.41 78.1633 54.83C78.4033 54.25 78.5233 53.6333 78.5233 52.98C78.5233 52.2333 78.3899 51.5833 78.1233 51.03C77.8566 50.4767 77.4799 50.0467 76.9933 49.74C76.5066 49.4333 75.9299 49.28 75.2633 49.28C74.5433 49.28 73.9366 49.4433 73.4433 49.77C72.9499 50.0967 72.5766 50.54 72.3233 51.1C72.0766 51.66 71.9533 52.2867 71.9533 52.98C71.9533 53.6333 72.0733 54.25 72.3133 54.83C72.5599 55.41 72.9299 55.88 73.4233 56.24C73.9166 56.6 74.5333 56.78 75.2733 56.78ZM88.7164 58C88.2697 57.5467 87.8164 57.0933 87.3564 56.64C86.9031 56.1867 86.4531 55.7367 86.0064 55.29L84.2964 53.58H83.5964V52.4H84.3964L85.8364 50.87C86.2764 50.41 86.7197 49.9467 87.1664 49.48C87.6131 49.0067 88.0531 48.54 88.4864 48.08H90.5264C89.9531 48.66 89.3831 49.24 88.8164 49.82C88.2497 50.4 87.6864 50.98 87.1264 51.56L85.4364 53.28L85.3764 52.48L87.3364 54.5C87.9297 55.0867 88.5197 55.6733 89.1064 56.26C89.6997 56.84 90.2864 57.42 90.8664 58H88.7164ZM82.1364 58C82.1364 57.26 82.1364 56.55 82.1364 55.87C82.1364 55.19 82.1364 54.44 82.1364 53.62V48.13C82.1364 47.29 82.1364 46.4733 82.1364 45.68C82.1364 44.8867 82.1364 44.1133 82.1364 43.36L83.7864 43.16C83.7864 43.9533 83.7864 44.76 83.7864 45.58C83.7864 46.3933 83.7864 47.2433 83.7864 48.13V53.88C83.7864 54.6267 83.7864 55.3233 83.7864 55.97C83.7864 56.6167 83.7864 57.2933 83.7864 58H82.1364ZM91.7462 58C91.7462 57.2867 91.7462 56.5967 91.7462 55.93C91.7462 55.2567 91.7462 54.5067 91.7462 53.68V52.68C91.7462 52.02 91.7462 51.43 91.7462 50.91C91.7462 50.3833 91.7462 49.89 91.7462 49.43C91.7462 48.9633 91.7462 48.4933 91.7462 48.02L94.7362 47.93C94.7362 48.41 94.7362 48.8867 94.7362 49.36C94.7362 49.8333 94.7362 50.3367 94.7362 50.87C94.7362 51.4033 94.7362 52.0067 94.7362 52.68V53.68C94.7362 54.5067 94.7362 55.2567 94.7362 55.93C94.7362 56.5967 94.7362 57.2867 94.7362 58H91.7462ZM93.2162 46.48C92.6629 46.48 92.2196 46.35 91.8862 46.09C91.5596 45.8233 91.3962 45.3933 91.3962 44.8C91.3962 44.2667 91.5596 43.86 91.8862 43.58C92.2196 43.2933 92.6696 43.15 93.2362 43.15C93.8029 43.15 94.2462 43.3 94.5662 43.6C94.8929 43.8933 95.0562 44.2933 95.0562 44.8C95.0562 45.3933 94.8929 45.8233 94.5662 46.09C94.2396 46.35 93.7896 46.48 93.2162 46.48ZM99.7127 58.26C99.2193 58.26 98.7493 58.23 98.3027 58.17C97.856 58.1167 97.446 58.04 97.0727 57.94C96.6993 57.8333 96.3727 57.7133 96.0927 57.58L96.2827 55.05C96.576 55.23 96.9027 55.39 97.2627 55.53C97.6293 55.6633 98.0027 55.7667 98.3827 55.84C98.7693 55.9133 99.146 55.95 99.5127 55.95C99.7793 55.95 100.019 55.9267 100.233 55.88C100.446 55.8267 100.613 55.7367 100.733 55.61C100.853 55.4767 100.913 55.28 100.913 55.02C100.913 54.8333 100.846 54.68 100.713 54.56C100.586 54.44 100.369 54.33 100.063 54.23C99.7627 54.1233 99.3493 54.0033 98.8227 53.87C98.2293 53.7167 97.7293 53.5233 97.3227 53.29C96.916 53.05 96.6093 52.7433 96.4027 52.37C96.196 51.9967 96.0927 51.52 96.0927 50.94C96.0927 49.9333 96.4193 49.1533 97.0727 48.6C97.7327 48.04 98.6293 47.76 99.7627 47.76C100.256 47.76 100.729 47.7933 101.183 47.86C101.636 47.9267 102.046 48.0167 102.413 48.13C102.786 48.2367 103.099 48.3467 103.353 48.46L103.153 51.01C102.846 50.8167 102.513 50.6567 102.153 50.53C101.793 50.3967 101.446 50.2967 101.113 50.23C100.786 50.1633 100.516 50.13 100.303 50.13C100.089 50.13 99.8927 50.16 99.7127 50.22C99.5393 50.2733 99.4027 50.3633 99.3027 50.49C99.2027 50.6167 99.1527 50.7833 99.1527 50.99C99.1527 51.1633 99.196 51.3167 99.2827 51.45C99.3693 51.5767 99.5327 51.6967 99.7727 51.81C100.013 51.9167 100.363 52.0333 100.823 52.16C101.543 52.3533 102.133 52.5633 102.593 52.79C103.053 53.01 103.393 53.2933 103.613 53.64C103.839 53.9867 103.953 54.4467 103.953 55.02C103.953 55.66 103.806 56.2267 103.513 56.72C103.226 57.2067 102.769 57.5867 102.143 57.86C101.523 58.1267 100.713 58.26 99.7127 58.26ZM104.969 58C104.969 57.2867 104.969 56.5967 104.969 55.93C104.969 55.2567 104.969 54.5067 104.969 53.68V48.13C104.969 47.3167 104.969 46.5133 104.969 45.72C104.969 44.9267 104.969 44.1333 104.969 43.34L107.959 43.08C107.959 43.8667 107.959 44.6767 107.959 45.51C107.959 46.3367 107.959 47.21 107.959 48.13V49.41H108.209C108.409 49.1233 108.652 48.8533 108.939 48.6C109.226 48.3467 109.556 48.1433 109.929 47.99C110.309 47.83 110.736 47.75 111.209 47.75C112.209 47.75 112.966 48.0467 113.479 48.64C113.992 49.2267 114.249 50.1067 114.249 51.28C114.249 51.72 114.249 52.13 114.249 52.51C114.249 52.8833 114.249 53.2733 114.249 53.68C114.249 54.4933 114.249 55.24 114.249 55.92C114.249 56.5933 114.249 57.2867 114.249 58H111.269C111.269 57.2867 111.269 56.5967 111.269 55.93C111.269 55.2633 111.269 54.5667 111.269 53.84V52.24C111.269 51.6533 111.172 51.2133 110.979 50.92C110.786 50.62 110.439 50.47 109.939 50.47C109.652 50.47 109.389 50.53 109.149 50.65C108.909 50.7633 108.689 50.92 108.489 51.12C108.289 51.3133 108.112 51.53 107.959 51.77V53.84C107.959 54.5867 107.959 55.29 107.959 55.95C107.959 56.6033 107.959 57.2867 107.959 58H104.969Z" fill="#35364D"/>
</svg>
