<svg width="161" height="98" viewBox="0 0 161 98" fill="none" xmlns="http://www.w3.org/2000/svg">
<rect x="0.5" y="0.5" width="160" height="97" rx="24.5" fill="white" stroke="#DDDBEB"/>
<path d="M46.29 58C45.6233 58 45.0067 58 44.44 58C43.8733 58 43.37 58 42.93 58C42.49 58 42.13 58 41.85 58C41.85 57.2067 41.85 56.4433 41.85 55.71C41.85 54.9767 41.85 54.17 41.85 53.29V48.5C41.85 47.6133 41.85 46.7967 41.85 46.05C41.85 45.3033 41.85 44.5333 41.85 43.74C42.6033 43.74 43.4267 43.74 44.32 43.74C45.22 43.74 46.1433 43.74 47.09 43.74C47.9233 43.74 48.63 43.82 49.21 43.98C49.7967 44.1333 50.2733 44.3567 50.64 44.65C51.0067 44.9367 51.2767 45.2867 51.45 45.7C51.6233 46.1133 51.71 46.58 51.71 47.1C51.71 47.7067 51.6 48.2367 51.38 48.69C51.16 49.1433 50.86 49.52 50.48 49.82C50.1067 50.12 49.68 50.3433 49.2 50.49V50.67C49.6933 50.7633 50.16 50.9367 50.6 51.19C51.04 51.4433 51.3967 51.8067 51.67 52.28C51.9433 52.7467 52.08 53.3467 52.08 54.08C52.08 54.64 51.9833 55.16 51.79 55.64C51.6033 56.1133 51.29 56.5267 50.85 56.88C50.4167 57.2333 49.8267 57.51 49.08 57.71C48.34 57.9033 47.41 58 46.29 58ZM43.62 56.5H46.43C47.3367 56.5 48.0667 56.3967 48.62 56.19C49.18 55.9833 49.5833 55.69 49.83 55.31C50.0833 54.93 50.21 54.4767 50.21 53.95C50.21 53.0767 49.9033 52.4533 49.29 52.08C48.6767 51.7 47.8167 51.51 46.71 51.51H43.22V50.06H46.71C47.4433 50.06 48.04 49.94 48.5 49.7C48.9667 49.46 49.3067 49.1467 49.52 48.76C49.7333 48.3733 49.84 47.95 49.84 47.49C49.84 46.71 49.5967 46.14 49.11 45.78C48.63 45.42 47.9133 45.24 46.96 45.24H43.62C43.62 45.82 43.62 46.3967 43.62 46.97C43.62 47.5433 43.62 48.1733 43.62 48.86V52.95C43.62 53.6233 43.62 54.24 43.62 54.8C43.62 55.36 43.62 55.9267 43.62 56.5ZM58.1202 58.22C57.3002 58.22 56.5768 58.08 55.9502 57.8C55.3302 57.5133 54.8102 57.1267 54.3902 56.64C53.9702 56.1533 53.6502 55.5967 53.4302 54.97C53.2168 54.3367 53.1102 53.6733 53.1102 52.98C53.1102 51.9867 53.3102 51.1067 53.7102 50.34C54.1168 49.5667 54.6902 48.9567 55.4302 48.51C56.1768 48.0633 57.0635 47.84 58.0902 47.84C58.8835 47.84 59.5868 47.97 60.2002 48.23C60.8135 48.49 61.3335 48.8533 61.7602 49.32C62.1868 49.7867 62.5102 50.3333 62.7302 50.96C62.9502 51.58 63.0602 52.2533 63.0602 52.98C63.0602 53.96 62.8602 54.8467 62.4602 55.64C62.0602 56.4333 61.4902 57.0633 60.7502 57.53C60.0168 57.99 59.1402 58.22 58.1202 58.22ZM58.1202 56.78C58.8468 56.78 59.4502 56.6 59.9302 56.24C60.4102 55.88 60.7702 55.41 61.0102 54.83C61.2502 54.25 61.3702 53.6333 61.3702 52.98C61.3702 52.2333 61.2368 51.5833 60.9702 51.03C60.7035 50.4767 60.3268 50.0467 59.8402 49.74C59.3535 49.4333 58.7768 49.28 58.1102 49.28C57.3902 49.28 56.7835 49.4433 56.2902 49.77C55.7968 50.0967 55.4235 50.54 55.1702 51.1C54.9235 51.66 54.8002 52.2867 54.8002 52.98C54.8002 53.6333 54.9202 54.25 55.1602 54.83C55.4068 55.41 55.7768 55.88 56.2702 56.24C56.7635 56.6 57.3802 56.78 58.1202 56.78ZM69.2733 58.22C68.4533 58.22 67.7299 58.08 67.1033 57.8C66.4833 57.5133 65.9633 57.1267 65.5433 56.64C65.1233 56.1533 64.8033 55.5967 64.5833 54.97C64.3699 54.3367 64.2633 53.6733 64.2633 52.98C64.2633 51.9867 64.4633 51.1067 64.8633 50.34C65.2699 49.5667 65.8433 48.9567 66.5833 48.51C67.3299 48.0633 68.2166 47.84 69.2433 47.84C70.0366 47.84 70.7399 47.97 71.3533 48.23C71.9666 48.49 72.4866 48.8533 72.9133 49.32C73.3399 49.7867 73.6633 50.3333 73.8833 50.96C74.1033 51.58 74.2133 52.2533 74.2133 52.98C74.2133 53.96 74.0133 54.8467 73.6133 55.64C73.2133 56.4333 72.6433 57.0633 71.9033 57.53C71.1699 57.99 70.2933 58.22 69.2733 58.22ZM69.2733 56.78C69.9999 56.78 70.6033 56.6 71.0833 56.24C71.5633 55.88 71.9233 55.41 72.1633 54.83C72.4033 54.25 72.5233 53.6333 72.5233 52.98C72.5233 52.2333 72.3899 51.5833 72.1233 51.03C71.8566 50.4767 71.4799 50.0467 70.9933 49.74C70.5066 49.4333 69.9299 49.28 69.2633 49.28C68.5433 49.28 67.9366 49.4433 67.4433 49.77C66.9499 50.0967 66.5766 50.54 66.3233 51.1C66.0766 51.66 65.9533 52.2867 65.9533 52.98C65.9533 53.6333 66.0733 54.25 66.3133 54.83C66.5599 55.41 66.9299 55.88 67.4233 56.24C67.9166 56.6 68.5333 56.78 69.2733 56.78ZM82.7164 58C82.2697 57.5467 81.8164 57.0933 81.3564 56.64C80.9031 56.1867 80.4531 55.7367 80.0064 55.29L78.2964 53.58H77.5964V52.4H78.3964L79.8364 50.87C80.2764 50.41 80.7197 49.9467 81.1664 49.48C81.6131 49.0067 82.0531 48.54 82.4864 48.08H84.5264C83.9531 48.66 83.3831 49.24 82.8164 49.82C82.2497 50.4 81.6864 50.98 81.1264 51.56L79.4364 53.28L79.3764 52.48L81.3364 54.5C81.9297 55.0867 82.5197 55.6733 83.1064 56.26C83.6997 56.84 84.2864 57.42 84.8664 58H82.7164ZM76.1364 58C76.1364 57.26 76.1364 56.55 76.1364 55.87C76.1364 55.19 76.1364 54.44 76.1364 53.62V48.13C76.1364 47.29 76.1364 46.4733 76.1364 45.68C76.1364 44.8867 76.1364 44.1133 76.1364 43.36L77.7864 43.16C77.7864 43.9533 77.7864 44.76 77.7864 45.58C77.7864 46.3933 77.7864 47.2433 77.7864 48.13V53.88C77.7864 54.6267 77.7864 55.3233 77.7864 55.97C77.7864 56.6167 77.7864 57.2933 77.7864 58H76.1364ZM85.8562 58C85.8562 57.2333 85.8562 56.49 85.8562 55.77C85.8562 55.05 85.8562 54.2433 85.8562 53.35V48.51C85.8562 47.59 85.8562 46.76 85.8562 46.02C85.8562 45.28 85.8562 44.52 85.8562 43.74C86.2896 43.74 86.7996 43.74 87.3862 43.74C87.9796 43.74 88.6129 43.74 89.2862 43.74C89.9596 43.74 90.6396 43.74 91.3262 43.74C92.4862 43.74 93.4662 43.87 94.2662 44.13C95.0729 44.3833 95.6829 44.81 96.0962 45.41C96.5163 46.01 96.7263 46.8267 96.7263 47.86C96.7263 48.68 96.5629 49.4167 96.2363 50.07C95.9162 50.7233 95.3996 51.24 94.6862 51.62C93.9729 52 93.0396 52.19 91.8862 52.19L93.1562 50.99L95.0962 53.85C95.3962 54.29 95.7163 54.7633 96.0563 55.27C96.3963 55.77 96.7263 56.26 97.0462 56.74C97.3729 57.2133 97.6596 57.6333 97.9062 58H94.1762C93.8162 57.44 93.4696 56.9033 93.1362 56.39C92.8029 55.8767 92.4796 55.3767 92.1662 54.89L89.8562 51.25L91.8062 52.74H88.4962V50.39H90.8762C91.4096 50.39 91.8562 50.3267 92.2162 50.2C92.5829 50.0667 92.8596 49.8433 93.0462 49.53C93.2329 49.2167 93.3262 48.7867 93.3262 48.24C93.3262 47.8333 93.2662 47.5067 93.1462 47.26C93.0262 47.0067 92.8629 46.81 92.6562 46.67C92.4562 46.53 92.2296 46.4367 91.9762 46.39C91.7296 46.3433 91.4796 46.32 91.2262 46.32H86.7462L89.0862 44.26C89.0862 45.0667 89.0862 45.84 89.0862 46.58C89.0862 47.3133 89.0862 48.13 89.0862 49.03V53.35C89.0862 54.2433 89.0862 55.05 89.0862 55.77C89.0862 56.49 89.0862 57.2333 89.0862 58H85.8562ZM98.7744 58C98.7744 57.2867 98.7744 56.5967 98.7744 55.93C98.7744 55.2567 98.7744 54.5067 98.7744 53.68V52.68C98.7744 52.02 98.7744 51.43 98.7744 50.91C98.7744 50.3833 98.7744 49.89 98.7744 49.43C98.7744 48.9633 98.7744 48.4933 98.7744 48.02L101.764 47.93C101.764 48.41 101.764 48.8867 101.764 49.36C101.764 49.8333 101.764 50.3367 101.764 50.87C101.764 51.4033 101.764 52.0067 101.764 52.68V53.68C101.764 54.5067 101.764 55.2567 101.764 55.93C101.764 56.5967 101.764 57.2867 101.764 58H98.7744ZM100.244 46.48C99.691 46.48 99.2477 46.35 98.9144 46.09C98.5877 45.8233 98.4244 45.3933 98.4244 44.8C98.4244 44.2667 98.5877 43.86 98.9144 43.58C99.2477 43.2933 99.6977 43.15 100.264 43.15C100.831 43.15 101.274 43.3 101.594 43.6C101.921 43.8933 102.084 44.2933 102.084 44.8C102.084 45.3933 101.921 45.8233 101.594 46.09C101.268 46.35 100.818 46.48 100.244 46.48ZM108.271 58.27C107.364 58.27 106.574 58.1267 105.901 57.84C105.234 57.5533 104.681 57.1633 104.241 56.67C103.807 56.1767 103.481 55.6133 103.261 54.98C103.047 54.34 102.941 53.6733 102.941 52.98C102.941 51.9867 103.141 51.0967 103.541 50.31C103.947 49.5167 104.541 48.8933 105.321 48.44C106.107 47.98 107.071 47.75 108.211 47.75C109.091 47.75 109.861 47.8833 110.521 48.15C111.187 48.41 111.741 48.78 112.181 49.26C112.627 49.7333 112.961 50.29 113.181 50.93C113.401 51.5633 113.511 52.2467 113.511 52.98C113.511 53.9867 113.307 54.89 112.901 55.69C112.494 56.4833 111.901 57.1133 111.121 57.58C110.341 58.04 109.391 58.27 108.271 58.27ZM108.261 55.83C108.761 55.83 109.171 55.6967 109.491 55.43C109.817 55.1567 110.061 54.8033 110.221 54.37C110.387 53.9367 110.471 53.4733 110.471 52.98C110.471 52.3933 110.377 51.8933 110.191 51.48C110.004 51.06 109.744 50.74 109.411 50.52C109.077 50.3 108.691 50.19 108.251 50.19C107.757 50.19 107.341 50.3133 107.001 50.56C106.667 50.8067 106.414 51.14 106.241 51.56C106.074 51.98 105.991 52.4533 105.991 52.98C105.991 53.4733 106.074 53.9367 106.241 54.37C106.414 54.8033 106.667 55.1567 107.001 55.43C107.341 55.6967 107.761 55.83 108.261 55.83ZM118.826 58.27C118.086 58.27 117.452 58.16 116.926 57.94C116.406 57.7133 116.006 57.3533 115.726 56.86C115.452 56.3667 115.316 55.7167 115.316 54.91C115.316 54.4767 115.316 54.0333 115.316 53.58C115.316 53.12 115.316 52.64 115.316 52.14C115.316 51.64 115.316 51.1133 115.316 50.56C115.316 50.0067 115.316 49.41 115.316 48.77C115.316 48.0167 115.316 47.3267 115.316 46.7C115.316 46.0733 115.316 45.4333 115.316 44.78L118.256 44.25C118.256 44.77 118.256 45.2633 118.256 45.73C118.256 46.19 118.256 46.6667 118.256 47.16C118.256 47.6467 118.256 48.1833 118.256 48.77V53.97C118.256 54.5767 118.366 55.04 118.586 55.36C118.812 55.6733 119.179 55.83 119.686 55.83C119.899 55.83 120.132 55.7933 120.386 55.72C120.639 55.64 120.882 55.5167 121.116 55.35L121.286 57.77C121.112 57.8767 120.892 57.9667 120.626 58.04C120.359 58.1133 120.069 58.17 119.756 58.21C119.442 58.25 119.132 58.27 118.826 58.27ZM113.696 50.27V48.02H121.236V50.27C120.609 50.27 119.979 50.27 119.346 50.27C118.719 50.27 118.112 50.27 117.526 50.27H116.196H113.696Z" fill="#35364D"/>
</svg>
