<svg width="161" height="98" viewBox="0 0 161 98" fill="none" xmlns="http://www.w3.org/2000/svg">
<rect x="0.5" y="0.5" width="160" height="97" rx="24.5" fill="white" stroke="#DDDBEB"/>
<path d="M27.85 58C27.85 57.2067 27.85 56.4433 27.85 55.71C27.85 54.9767 27.85 54.17 27.85 53.29V48.51C27.85 47.61 27.85 46.79 27.85 46.05C27.85 45.3033 27.85 44.5333 27.85 43.74H29.66C29.66 44.5333 29.66 45.3033 29.66 46.05C29.66 46.79 29.66 47.61 29.66 48.51V53.01C29.66 53.89 29.66 54.6967 29.66 55.43C29.66 56.1633 29.66 56.9267 29.66 57.72L28.98 56.39H31.6C32.36 56.39 33.03 56.39 33.61 56.39C34.1967 56.39 34.7367 56.39 35.23 56.39C35.73 56.39 36.24 56.39 36.76 56.39V58H27.85ZM38.3853 58C38.3853 57.26 38.3853 56.55 38.3853 55.87C38.3853 55.19 38.3853 54.44 38.3853 53.62V52.62C38.3853 52.0267 38.3853 51.48 38.3853 50.98C38.3853 50.4733 38.3853 49.9867 38.3853 49.52C38.3853 49.0467 38.3853 48.5667 38.3853 48.08L40.0453 48.02C40.0453 48.5133 40.0453 49 40.0453 49.48C40.0453 49.9533 40.0453 50.4467 40.0453 50.96C40.0453 51.4667 40.0453 52.02 40.0453 52.62V53.62C40.0453 54.44 40.0453 55.19 40.0453 55.87C40.0453 56.55 40.0453 57.26 40.0453 58H38.3853ZM39.1853 45.79C38.8253 45.79 38.532 45.69 38.3053 45.49C38.0786 45.29 37.9653 44.9833 37.9653 44.57C37.9653 44.1633 38.0786 43.86 38.3053 43.66C38.532 43.4533 38.832 43.35 39.2053 43.35C39.572 43.35 39.8653 43.4567 40.0853 43.67C40.3053 43.8767 40.4153 44.1767 40.4153 44.57C40.4153 44.9833 40.3053 45.29 40.0853 45.49C39.8653 45.69 39.5653 45.79 39.1853 45.79ZM47.562 58.22C47.102 58.22 46.6787 58.1567 46.292 58.03C45.9054 57.91 45.552 57.7367 45.232 57.51C44.912 57.2767 44.622 56.9967 44.362 56.67H44.202L44.062 58H42.702C42.702 57.26 42.702 56.55 42.702 55.87C42.702 55.19 42.702 54.44 42.702 53.62V48.13C42.702 47.29 42.702 46.4733 42.702 45.68C42.702 44.8867 42.702 44.1133 42.702 43.36L44.352 43.16C44.352 43.9667 44.352 44.7767 44.352 45.59C44.352 46.3967 44.352 47.2433 44.352 48.13V49.19H44.522C44.7087 48.9433 44.9487 48.72 45.242 48.52C45.542 48.3133 45.8854 48.15 46.272 48.03C46.6587 47.9033 47.0787 47.84 47.532 47.84C48.4387 47.84 49.2087 48.0667 49.842 48.52C50.482 48.9667 50.9687 49.58 51.302 50.36C51.6354 51.14 51.802 52.0233 51.802 53.01C51.802 53.9367 51.6454 54.7967 51.332 55.59C51.0254 56.3767 50.5554 57.0133 49.922 57.5C49.2954 57.98 48.5087 58.22 47.562 58.22ZM47.062 56.74C47.7754 56.74 48.3554 56.5633 48.802 56.21C49.2554 55.8567 49.5854 55.4 49.792 54.84C50.0054 54.2733 50.112 53.6667 50.112 53.02C50.112 52.3467 49.9987 51.7333 49.772 51.18C49.552 50.62 49.2154 50.1733 48.762 49.84C48.3087 49.5067 47.732 49.34 47.032 49.34C46.6854 49.34 46.3454 49.3933 46.012 49.5C45.6787 49.6 45.3687 49.7533 45.082 49.96C44.802 50.16 44.5587 50.41 44.352 50.71V55.12C44.552 55.46 44.782 55.75 45.042 55.99C45.3087 56.23 45.6087 56.4167 45.942 56.55C46.2754 56.6767 46.6487 56.74 47.062 56.74ZM53.738 58C53.738 57.26 53.738 56.55 53.738 55.87C53.738 55.19 53.738 54.44 53.738 53.62V52.62C53.738 51.8867 53.738 51.1367 53.738 50.37C53.738 49.6033 53.738 48.84 53.738 48.08L55.178 47.98L55.228 50H55.398C55.6713 49.3933 55.9846 48.9367 56.338 48.63C56.698 48.3167 57.0613 48.1067 57.428 48C57.7946 47.8933 58.1313 47.84 58.438 47.84C58.6246 47.84 58.8113 47.8533 58.998 47.88C59.1846 47.9067 59.3613 47.95 59.528 48.01L59.378 49.67C59.158 49.63 58.958 49.5967 58.778 49.57C58.6046 49.5433 58.4013 49.53 58.168 49.53C57.9746 49.53 57.7546 49.56 57.508 49.62C57.268 49.6733 57.018 49.79 56.758 49.97C56.5046 50.1433 56.258 50.4067 56.018 50.76C55.778 51.1067 55.568 51.57 55.388 52.15V53.69C55.388 54.47 55.388 55.2 55.388 55.88C55.388 56.5533 55.388 57.26 55.388 58H53.738ZM63.0509 58.2C62.4576 58.2 61.9376 58.0867 61.4909 57.86C61.0443 57.6267 60.6943 57.2967 60.4409 56.87C60.1943 56.4433 60.0709 55.93 60.0709 55.33C60.0709 54.79 60.1676 54.3367 60.3609 53.97C60.5543 53.5967 60.8076 53.2933 61.1209 53.06C61.4343 52.8267 61.7809 52.6467 62.1609 52.52C62.5409 52.3867 62.9209 52.2867 63.3009 52.22L66.4109 51.68C66.4376 51.0067 66.3476 50.5 66.1409 50.16C65.9409 49.8133 65.6576 49.58 65.2909 49.46C64.9243 49.34 64.5176 49.28 64.0709 49.28C63.8443 49.28 63.6009 49.2967 63.3409 49.33C63.0809 49.3633 62.8043 49.4167 62.5109 49.49C62.2243 49.5567 61.9209 49.6433 61.6009 49.75C61.2809 49.8567 60.9443 49.9867 60.5909 50.14L60.5009 48.63C60.7409 48.53 61.0109 48.4333 61.3109 48.34C61.6176 48.2467 61.9409 48.1633 62.2809 48.09C62.6276 48.01 62.9809 47.95 63.3409 47.91C63.7009 47.87 64.0643 47.85 64.4309 47.85C65.1709 47.85 65.8076 47.9667 66.3409 48.2C66.8809 48.4333 67.2943 48.8 67.5809 49.3C67.8676 49.8 68.0109 50.4533 68.0109 51.26C68.0109 51.5667 68.0109 51.9567 68.0109 52.43C68.0109 52.9033 68.0109 53.3533 68.0109 53.78V55.07C68.0109 55.5233 68.0109 55.9867 68.0109 56.46C68.0109 56.9267 68.0109 57.44 68.0109 58H66.5109L66.4209 56.59H66.2609C66.0543 56.8567 65.7943 57.1133 65.4809 57.36C65.1676 57.6067 64.8043 57.81 64.3909 57.97C63.9843 58.1233 63.5376 58.2 63.0509 58.2ZM63.5309 56.83C63.8843 56.83 64.2376 56.7567 64.5909 56.61C64.9443 56.4633 65.2743 56.2467 65.5809 55.96C65.8943 55.6667 66.1576 55.3 66.3709 54.86L66.3809 52.72C66.2743 52.78 66.1309 52.84 65.9509 52.9C65.7776 52.96 65.5143 53.03 65.1609 53.11C64.8143 53.1833 64.3309 53.2767 63.7109 53.39C63.3309 53.4567 62.9943 53.5667 62.7009 53.72C62.4076 53.8667 62.1743 54.07 62.0009 54.33C61.8343 54.5833 61.7509 54.8933 61.7509 55.26C61.7509 55.8333 61.9209 56.24 62.2609 56.48C62.6076 56.7133 63.0309 56.83 63.5309 56.83ZM70.3997 58C70.3997 57.26 70.3997 56.55 70.3997 55.87C70.3997 55.19 70.3997 54.44 70.3997 53.62V52.62C70.3997 51.8867 70.3997 51.1367 70.3997 50.37C70.3997 49.6033 70.3997 48.84 70.3997 48.08L71.8397 47.98L71.8897 50H72.0597C72.333 49.3933 72.6464 48.9367 72.9997 48.63C73.3597 48.3167 73.723 48.1067 74.0897 48C74.4564 47.8933 74.793 47.84 75.0997 47.84C75.2864 47.84 75.473 47.8533 75.6597 47.88C75.8464 47.9067 76.023 47.95 76.1897 48.01L76.0397 49.67C75.8197 49.63 75.6197 49.5967 75.4397 49.57C75.2664 49.5433 75.063 49.53 74.8297 49.53C74.6364 49.53 74.4164 49.56 74.1697 49.62C73.9297 49.6733 73.6797 49.79 73.4197 49.97C73.1664 50.1433 72.9197 50.4067 72.6797 50.76C72.4397 51.1067 72.2297 51.57 72.0497 52.15V53.69C72.0497 54.47 72.0497 55.2 72.0497 55.88C72.0497 56.5533 72.0497 57.26 72.0497 58H70.3997ZM78.548 61.9C78.8146 61.2467 79.0813 60.5867 79.348 59.92C79.6146 59.2533 79.8813 58.5933 80.148 57.94V58.36C79.8946 57.68 79.6413 56.99 79.388 56.29C79.1346 55.59 78.8846 54.91 78.638 54.25L77.978 52.45C77.718 51.7367 77.448 51.0067 77.168 50.26C76.8946 49.5133 76.628 48.7867 76.368 48.08L78.138 48.01C78.4246 48.87 78.7046 49.71 78.978 50.53C79.2513 51.35 79.5313 52.1867 79.818 53.04L80.868 56.23H81.048L82.198 53.03C82.498 52.1967 82.7946 51.37 83.088 50.55C83.3813 49.73 83.678 48.9067 83.978 48.08H85.728C85.5146 48.6133 85.308 49.13 85.108 49.63C84.9146 50.1233 84.698 50.67 84.458 51.27C84.2246 51.87 83.9446 52.5833 83.618 53.41L82.518 56.2C82.018 57.4667 81.5913 58.5433 81.238 59.43C80.8913 60.3167 80.5746 61.12 80.288 61.84L78.548 61.9ZM90.2395 58C90.2395 57.2333 90.2395 56.49 90.2395 55.77C90.2395 55.05 90.2395 54.2433 90.2395 53.35V49.03C90.2395 48.11 90.2395 47.28 90.2395 46.54C90.2395 45.8 90.2395 45.04 90.2395 44.26L91.4795 46.61H89.5895C88.8362 46.61 88.1695 46.61 87.5895 46.61C87.0095 46.61 86.4562 46.61 85.9295 46.61V43.74H97.8195V46.61C97.2995 46.61 96.7495 46.61 96.1695 46.61C95.5895 46.61 94.9195 46.61 94.1595 46.61H92.2695L93.5195 44.26C93.5195 45.04 93.5195 45.8 93.5195 46.54C93.5195 47.28 93.5195 48.11 93.5195 49.03V53.35C93.5195 54.2433 93.5195 55.05 93.5195 55.77C93.5195 56.49 93.5195 57.2333 93.5195 58H90.2395ZM98.7597 58C98.7597 57.2867 98.7597 56.5967 98.7597 55.93C98.7597 55.2567 98.7597 54.5067 98.7597 53.68V48.13C98.7597 47.3167 98.7597 46.5133 98.7597 45.72C98.7597 44.9267 98.7597 44.1333 98.7597 43.34L101.75 43.08C101.75 43.8667 101.75 44.6767 101.75 45.51C101.75 46.3367 101.75 47.21 101.75 48.13V49.41H102C102.2 49.1233 102.443 48.8533 102.73 48.6C103.016 48.3467 103.346 48.1433 103.72 47.99C104.1 47.83 104.526 47.75 105 47.75C106 47.75 106.756 48.0467 107.27 48.64C107.783 49.2267 108.04 50.1067 108.04 51.28C108.04 51.72 108.04 52.13 108.04 52.51C108.04 52.8833 108.04 53.2733 108.04 53.68C108.04 54.4933 108.04 55.24 108.04 55.92C108.04 56.5933 108.04 57.2867 108.04 58H105.06C105.06 57.2867 105.06 56.5967 105.06 55.93C105.06 55.2633 105.06 54.5667 105.06 53.84V52.24C105.06 51.6533 104.963 51.2133 104.77 50.92C104.576 50.62 104.23 50.47 103.73 50.47C103.443 50.47 103.18 50.53 102.94 50.65C102.7 50.7633 102.48 50.92 102.28 51.12C102.08 51.3133 101.903 51.53 101.75 51.77V53.84C101.75 54.5867 101.75 55.29 101.75 55.95C101.75 56.6033 101.75 57.2867 101.75 58H98.7597ZM109.582 58C109.582 57.2867 109.582 56.5967 109.582 55.93C109.582 55.2567 109.582 54.5067 109.582 53.68V52.68C109.582 52.02 109.582 51.43 109.582 50.91C109.582 50.3833 109.582 49.89 109.582 49.43C109.582 48.9633 109.582 48.4933 109.582 48.02L112.572 47.93C112.572 48.41 112.572 48.8867 112.572 49.36C112.572 49.8333 112.572 50.3367 112.572 50.87C112.572 51.4033 112.572 52.0067 112.572 52.68V53.68C112.572 54.5067 112.572 55.2567 112.572 55.93C112.572 56.5967 112.572 57.2867 112.572 58H109.582ZM111.052 46.48C110.499 46.48 110.056 46.35 109.722 46.09C109.396 45.8233 109.232 45.3933 109.232 44.8C109.232 44.2667 109.396 43.86 109.722 43.58C110.056 43.2933 110.506 43.15 111.072 43.15C111.639 43.15 112.082 43.3 112.402 43.6C112.729 43.8933 112.892 44.2933 112.892 44.8C112.892 45.3933 112.729 45.8233 112.402 46.09C112.076 46.35 111.626 46.48 111.052 46.48ZM114.289 58C114.289 57.2867 114.289 56.5967 114.289 55.93C114.289 55.2567 114.289 54.5067 114.289 53.68V52.68C114.289 51.9133 114.289 51.1433 114.289 50.37C114.289 49.5967 114.289 48.8133 114.289 48.02L116.799 47.87L116.929 49.61H117.179C117.405 49.2833 117.679 48.98 117.999 48.7C118.319 48.4133 118.685 48.1833 119.099 48.01C119.519 47.8367 119.995 47.75 120.529 47.75C121.529 47.75 122.285 48.0467 122.799 48.64C123.312 49.2267 123.569 50.1067 123.569 51.28C123.569 51.72 123.569 52.13 123.569 52.51C123.569 52.8833 123.569 53.2733 123.569 53.68C123.569 54.4933 123.569 55.24 123.569 55.92C123.569 56.5933 123.569 57.2867 123.569 58H120.589C120.589 57.2867 120.589 56.5967 120.589 55.93C120.589 55.2633 120.589 54.5667 120.589 53.84V52.24C120.589 51.6533 120.492 51.2133 120.299 50.92C120.105 50.62 119.759 50.47 119.259 50.47C118.972 50.47 118.709 50.53 118.469 50.65C118.229 50.7633 118.009 50.92 117.809 51.12C117.609 51.3133 117.432 51.53 117.279 51.77V53.84C117.279 54.5867 117.279 55.29 117.279 55.95C117.279 56.6033 117.279 57.2867 117.279 58H114.289ZM128.601 62.09C127.848 62.09 127.214 62.0267 126.701 61.9C126.194 61.7733 125.791 61.6 125.491 61.38C125.191 61.1667 124.974 60.92 124.841 60.64C124.714 60.3667 124.651 60.0833 124.651 59.79C124.651 59.35 124.758 58.9867 124.971 58.7C125.184 58.42 125.434 58.2 125.721 58.04C126.014 57.88 126.271 57.7667 126.491 57.7V57.5C126.351 57.4667 126.194 57.39 126.021 57.27C125.854 57.15 125.708 56.9867 125.581 56.78C125.454 56.5733 125.391 56.32 125.391 56.02C125.391 55.8 125.431 55.5867 125.511 55.38C125.598 55.1733 125.731 54.9833 125.911 54.81C126.091 54.6367 126.328 54.49 126.621 54.37V54.17C126.408 54.0833 126.178 53.96 125.931 53.8C125.684 53.64 125.451 53.4367 125.231 53.19C125.011 52.9367 124.831 52.6367 124.691 52.29C124.551 51.9433 124.481 51.5367 124.481 51.07C124.481 50.45 124.634 49.89 124.941 49.39C125.254 48.8833 125.724 48.4833 126.351 48.19C126.984 47.8967 127.781 47.75 128.741 47.75C129.114 47.75 129.441 47.77 129.721 47.81C130.001 47.8433 130.291 47.88 130.591 47.92C130.891 47.96 131.268 47.98 131.721 47.98H134.461V49.95C133.841 49.95 133.248 49.95 132.681 49.95C132.114 49.95 131.538 49.95 130.951 49.95L131.731 48.71C132.158 48.99 132.471 49.3433 132.671 49.77C132.878 50.19 132.981 50.67 132.981 51.21C132.981 51.8567 132.838 52.4 132.551 52.84C132.264 53.28 131.874 53.6333 131.381 53.9C130.894 54.1667 130.351 54.3633 129.751 54.49C129.198 54.61 128.788 54.72 128.521 54.82C128.254 54.92 128.121 55.07 128.121 55.27C128.121 55.3967 128.178 55.4967 128.291 55.57C128.404 55.6433 128.581 55.6967 128.821 55.73C129.061 55.7567 129.371 55.77 129.751 55.77H130.151C130.998 55.77 131.724 55.8433 132.331 55.99C132.938 56.1367 133.401 56.3967 133.721 56.77C134.048 57.1433 134.211 57.66 134.211 58.32C134.211 59.0067 134.044 59.59 133.711 60.07C133.378 60.55 132.934 60.9367 132.381 61.23C131.828 61.53 131.221 61.7467 130.561 61.88C129.908 62.02 129.254 62.09 128.601 62.09ZM128.971 60.03C129.524 60.03 129.981 59.96 130.341 59.82C130.708 59.68 130.978 59.5167 131.151 59.33C131.331 59.15 131.421 58.9933 131.421 58.86C131.421 58.6933 131.364 58.55 131.251 58.43C131.144 58.31 130.938 58.2167 130.631 58.15C130.324 58.09 129.881 58.06 129.301 58.06H128.991C128.718 58.0733 128.441 58.1233 128.161 58.21C127.888 58.3033 127.658 58.4267 127.471 58.58C127.291 58.7333 127.201 58.91 127.201 59.11C127.201 59.23 127.234 59.3433 127.301 59.45C127.374 59.5633 127.481 59.6633 127.621 59.75C127.761 59.8367 127.944 59.9033 128.171 59.95C128.398 60.0033 128.664 60.03 128.971 60.03ZM128.691 52.83C128.864 52.8167 129.048 52.78 129.241 52.72C129.441 52.66 129.628 52.58 129.801 52.48C129.974 52.3733 130.114 52.24 130.221 52.08C130.328 51.9133 130.381 51.7167 130.381 51.49C130.381 51.1833 130.301 50.93 130.141 50.73C129.981 50.53 129.778 50.38 129.531 50.28C129.284 50.18 129.024 50.13 128.751 50.13C128.484 50.13 128.234 50.18 128.001 50.28C127.768 50.38 127.578 50.5267 127.431 50.72C127.284 50.9067 127.211 51.1333 127.211 51.4C127.211 51.66 127.281 51.89 127.421 52.09C127.561 52.2833 127.741 52.4433 127.961 52.57C128.188 52.6967 128.431 52.7833 128.691 52.83Z" fill="#35364D"/>
</svg>
