<svg width="161" height="98" viewBox="0 0 161 98" fill="none" xmlns="http://www.w3.org/2000/svg">
<rect x="0.5" y="0.5" width="160" height="97" rx="24.5" fill="white" stroke="#DDDBEB"/>
<path d="M39.6 58.21C38.36 58.21 37.2667 58.0267 36.32 57.66C35.38 57.2867 34.59 56.7667 33.95 56.1C33.31 55.4333 32.8233 54.6533 32.49 53.76C32.1633 52.86 32 51.8867 32 50.84C32 49.4067 32.2933 48.1367 32.88 47.03C33.4733 45.9167 34.3067 45.0467 35.38 44.42C36.46 43.7933 37.73 43.48 39.19 43.48C39.69 43.48 40.1733 43.5133 40.64 43.58C41.1133 43.6467 41.5567 43.74 41.97 43.86C42.39 43.9733 42.7733 44.0967 43.12 44.23C43.4733 44.3633 43.7767 44.4967 44.03 44.63L43.87 46.37C43.3167 46.0633 42.78 45.8167 42.26 45.63C41.74 45.4367 41.2333 45.2967 40.74 45.21C40.2467 45.1233 39.7667 45.08 39.3 45.08C38.5067 45.08 37.7767 45.21 37.11 45.47C36.45 45.73 35.8767 46.11 35.39 46.61C34.9033 47.11 34.5267 47.7167 34.26 48.43C34 49.1433 33.87 49.95 33.87 50.85C33.87 51.6633 33.9833 52.4233 34.21 53.13C34.4433 53.8367 34.7967 54.4567 35.27 54.99C35.75 55.5233 36.36 55.94 37.1 56.24C37.84 56.5333 38.7167 56.68 39.73 56.68C40.1033 56.68 40.4767 56.6633 40.85 56.63C41.2233 56.59 41.59 56.53 41.95 56.45C42.3167 56.3633 42.6767 56.2567 43.03 56.13C43.3833 55.9967 43.7267 55.84 44.06 55.66L44.27 57.36C44.0433 57.4667 43.76 57.57 43.42 57.67C43.0867 57.77 42.7133 57.8633 42.3 57.95C41.8867 58.03 41.45 58.0933 40.99 58.14C40.5367 58.1867 40.0733 58.21 39.6 58.21ZM42.56 57.39C42.56 56.6833 42.56 56.0667 42.56 55.54C42.56 55.0133 42.56 54.4867 42.56 53.96C42.56 53.3333 42.56 52.78 42.56 52.3C42.56 51.82 42.56 51.3333 42.56 50.84H44.27C44.27 51.3333 44.27 51.82 44.27 52.3C44.27 52.78 44.27 53.3333 44.27 53.96C44.27 54.4867 44.27 55.0133 44.27 55.54C44.27 56.06 44.27 56.6667 44.27 57.36L42.56 57.39ZM50.878 58.22C50.058 58.22 49.3346 58.08 48.708 57.8C48.088 57.5133 47.568 57.1267 47.148 56.64C46.728 56.1533 46.408 55.5967 46.188 54.97C45.9746 54.3367 45.868 53.6733 45.868 52.98C45.868 51.9867 46.068 51.1067 46.468 50.34C46.8746 49.5667 47.448 48.9567 48.188 48.51C48.9346 48.0633 49.8213 47.84 50.848 47.84C51.6413 47.84 52.3446 47.97 52.958 48.23C53.5713 48.49 54.0913 48.8533 54.518 49.32C54.9446 49.7867 55.268 50.3333 55.488 50.96C55.708 51.58 55.818 52.2533 55.818 52.98C55.818 53.96 55.618 54.8467 55.218 55.64C54.818 56.4333 54.248 57.0633 53.508 57.53C52.7746 57.99 51.898 58.22 50.878 58.22ZM50.878 56.78C51.6046 56.78 52.208 56.6 52.688 56.24C53.168 55.88 53.528 55.41 53.768 54.83C54.008 54.25 54.128 53.6333 54.128 52.98C54.128 52.2333 53.9946 51.5833 53.728 51.03C53.4613 50.4767 53.0846 50.0467 52.598 49.74C52.1113 49.4333 51.5346 49.28 50.868 49.28C50.148 49.28 49.5413 49.4433 49.048 49.77C48.5546 50.0967 48.1813 50.54 47.928 51.1C47.6813 51.66 47.558 52.2867 47.558 52.98C47.558 53.6333 47.678 54.25 47.918 54.83C48.1646 55.41 48.5346 55.88 49.028 56.24C49.5213 56.6 50.138 56.78 50.878 56.78ZM62.0311 58.22C61.2111 58.22 60.4878 58.08 59.8611 57.8C59.2411 57.5133 58.7211 57.1267 58.3011 56.64C57.8811 56.1533 57.5611 55.5967 57.3411 54.97C57.1278 54.3367 57.0211 53.6733 57.0211 52.98C57.0211 51.9867 57.2211 51.1067 57.6211 50.34C58.0278 49.5667 58.6011 48.9567 59.3411 48.51C60.0878 48.0633 60.9744 47.84 62.0011 47.84C62.7944 47.84 63.4978 47.97 64.1111 48.23C64.7244 48.49 65.2444 48.8533 65.6711 49.32C66.0978 49.7867 66.4211 50.3333 66.6411 50.96C66.8611 51.58 66.9711 52.2533 66.9711 52.98C66.9711 53.96 66.7711 54.8467 66.3711 55.64C65.9711 56.4333 65.4011 57.0633 64.6611 57.53C63.9278 57.99 63.0511 58.22 62.0311 58.22ZM62.0311 56.78C62.7578 56.78 63.3611 56.6 63.8411 56.24C64.3211 55.88 64.6811 55.41 64.9211 54.83C65.1611 54.25 65.2811 53.6333 65.2811 52.98C65.2811 52.2333 65.1478 51.5833 64.8811 51.03C64.6144 50.4767 64.2378 50.0467 63.7511 49.74C63.2644 49.4333 62.6878 49.28 62.0211 49.28C61.3011 49.28 60.6944 49.4433 60.2011 49.77C59.7078 50.0967 59.3344 50.54 59.0811 51.1C58.8344 51.66 58.7111 52.2867 58.7111 52.98C58.7111 53.6333 58.8311 54.25 59.0711 54.83C59.3178 55.41 59.6878 55.88 60.1811 56.24C60.6744 56.6 61.2911 56.78 62.0311 56.78ZM72.4242 58.22C71.4776 58.22 70.6909 57.98 70.0642 57.5C69.4376 57.0133 68.9676 56.3767 68.6542 55.59C68.3409 54.7967 68.1842 53.9367 68.1842 53.01C68.1842 52.0233 68.3509 51.14 68.6842 50.36C69.0176 49.58 69.5009 48.9667 70.1342 48.52C70.7742 48.0667 71.5476 47.84 72.4542 47.84C72.9142 47.84 73.3342 47.9033 73.7142 48.03C74.1009 48.15 74.4409 48.3133 74.7342 48.52C75.0276 48.72 75.2709 48.9433 75.4642 49.19H75.6342V48.13C75.6342 47.29 75.6342 46.4767 75.6342 45.69C75.6342 44.8967 75.6342 44.12 75.6342 43.36L77.2842 43.16C77.2842 43.9667 77.2842 44.7767 77.2842 45.59C77.2842 46.3967 77.2842 47.2433 77.2842 48.13V53.62C77.2842 54.44 77.2842 55.19 77.2842 55.87C77.2842 56.55 77.2842 57.26 77.2842 58H75.8442L75.7642 56.64H75.6042C75.3442 56.98 75.0542 57.2667 74.7342 57.5C74.4142 57.7333 74.0609 57.91 73.6742 58.03C73.2942 58.1567 72.8776 58.22 72.4242 58.22ZM72.9242 56.74C73.3376 56.74 73.7109 56.6767 74.0442 56.55C74.3776 56.4167 74.6742 56.23 74.9342 55.99C75.2009 55.75 75.4342 55.46 75.6342 55.12V50.71C75.4276 50.41 75.1809 50.16 74.8942 49.96C74.6142 49.7533 74.3076 49.6 73.9742 49.5C73.6409 49.3933 73.3009 49.34 72.9542 49.34C72.2542 49.34 71.6776 49.5067 71.2242 49.84C70.7709 50.1733 70.4309 50.62 70.2042 51.18C69.9842 51.7333 69.8742 52.3467 69.8742 53.02C69.8742 53.6667 69.9809 54.2733 70.1942 54.84C70.4076 55.4 70.7376 55.8567 71.1842 56.21C71.6309 56.5633 72.2109 56.74 72.9242 56.74ZM79.3172 58C79.3172 57.2333 79.3172 56.49 79.3172 55.77C79.3172 55.05 79.3172 54.2433 79.3172 53.35V48.51C79.3172 47.59 79.3172 46.76 79.3172 46.02C79.3172 45.28 79.3172 44.52 79.3172 43.74C79.7505 43.74 80.2605 43.74 80.8472 43.74C81.4405 43.74 82.0739 43.74 82.7472 43.74C83.4205 43.74 84.1005 43.74 84.7872 43.74C85.9472 43.74 86.9272 43.87 87.7272 44.13C88.5339 44.3833 89.1439 44.81 89.5572 45.41C89.9772 46.01 90.1872 46.8267 90.1872 47.86C90.1872 48.68 90.0239 49.4167 89.6972 50.07C89.3772 50.7233 88.8605 51.24 88.1472 51.62C87.4339 52 86.5005 52.19 85.3472 52.19L86.6172 50.99L88.5572 53.85C88.8572 54.29 89.1772 54.7633 89.5172 55.27C89.8572 55.77 90.1872 56.26 90.5072 56.74C90.8339 57.2133 91.1205 57.6333 91.3672 58H87.6372C87.2772 57.44 86.9305 56.9033 86.5972 56.39C86.2639 55.8767 85.9405 55.3767 85.6272 54.89L83.3172 51.25L85.2672 52.74H81.9572V50.39H84.3372C84.8705 50.39 85.3172 50.3267 85.6772 50.2C86.0439 50.0667 86.3205 49.8433 86.5072 49.53C86.6939 49.2167 86.7872 48.7867 86.7872 48.24C86.7872 47.8333 86.7272 47.5067 86.6072 47.26C86.4872 47.0067 86.3239 46.81 86.1172 46.67C85.9172 46.53 85.6905 46.4367 85.4372 46.39C85.1905 46.3433 84.9405 46.32 84.6872 46.32H80.2072L82.5472 44.26C82.5472 45.0667 82.5472 45.84 82.5472 46.58C82.5472 47.3133 82.5472 48.13 82.5472 49.03V53.35C82.5472 54.2433 82.5472 55.05 82.5472 55.77C82.5472 56.49 82.5472 57.2333 82.5472 58H79.3172ZM96.4527 58.26C95.166 58.26 94.1127 58.0333 93.2927 57.58C92.4793 57.1267 91.8793 56.5033 91.4927 55.71C91.1127 54.9167 90.9227 54.0067 90.9227 52.98C90.9227 51.9533 91.1027 51.0467 91.4627 50.26C91.8227 49.4733 92.3593 48.86 93.0727 48.42C93.7927 47.9733 94.686 47.75 95.7527 47.75C96.6593 47.75 97.436 47.9133 98.0827 48.24C98.7293 48.56 99.226 49.0467 99.5727 49.7C99.9193 50.3533 100.093 51.1767 100.093 52.17C100.093 52.4367 100.086 52.6733 100.073 52.88C100.059 53.0867 100.036 53.2933 100.003 53.5L97.4427 52.53C97.456 52.4433 97.466 52.3533 97.4727 52.26C97.4793 52.1667 97.4827 52.08 97.4827 52C97.4827 51.3267 97.3227 50.8 97.0027 50.42C96.6893 50.0333 96.2827 49.84 95.7827 49.84C95.4027 49.84 95.066 49.9533 94.7727 50.18C94.4793 50.4 94.2493 50.71 94.0827 51.11C93.916 51.51 93.8327 51.9867 93.8327 52.54V53.03C93.8327 53.61 93.936 54.1067 94.1427 54.52C94.356 54.9333 94.6827 55.25 95.1227 55.47C95.5627 55.69 96.126 55.8 96.8127 55.8C97.0793 55.8 97.386 55.7767 97.7327 55.73C98.086 55.6767 98.4427 55.6 98.8027 55.5C99.1693 55.3933 99.5093 55.26 99.8227 55.1L99.9227 57.62C99.6627 57.74 99.3593 57.85 99.0127 57.95C98.6727 58.0433 98.286 58.1167 97.8527 58.17C97.4193 58.23 96.9527 58.26 96.4527 58.26ZM92.0727 53.5V51.9L98.2627 51.77L100.003 52.26V53.5H92.0727ZM103.53 58.24C102.957 58.24 102.457 58.12 102.03 57.88C101.603 57.64 101.27 57.3033 101.03 56.87C100.79 56.43 100.67 55.91 100.67 55.31C100.67 54.7433 100.77 54.27 100.97 53.89C101.17 53.5033 101.427 53.19 101.74 52.95C102.06 52.71 102.407 52.5267 102.78 52.4C103.16 52.2733 103.53 52.18 103.89 52.12L106.67 51.69C106.683 51.3033 106.61 51.0033 106.45 50.79C106.29 50.57 106.057 50.4167 105.75 50.33C105.45 50.2433 105.09 50.2 104.67 50.2C104.443 50.2 104.197 50.22 103.93 50.26C103.663 50.2933 103.383 50.3467 103.09 50.42C102.803 50.4933 102.503 50.5833 102.19 50.69C101.883 50.7967 101.573 50.9267 101.26 51.08L101.12 48.53C101.367 48.4433 101.65 48.3533 101.97 48.26C102.29 48.1667 102.637 48.0833 103.01 48.01C103.383 47.93 103.777 47.8667 104.19 47.82C104.61 47.7733 105.04 47.75 105.48 47.75C106.313 47.75 107.023 47.8733 107.61 48.12C108.203 48.36 108.657 48.74 108.97 49.26C109.283 49.78 109.44 50.46 109.44 51.3C109.44 51.6267 109.44 52.0267 109.44 52.5C109.44 52.9733 109.44 53.3967 109.44 53.77V54.72C109.44 55.2267 109.44 55.75 109.44 56.29C109.44 56.8233 109.44 57.3933 109.44 58H106.89L106.7 56.67H106.47C106.29 56.9233 106.063 57.1733 105.79 57.42C105.517 57.66 105.19 57.8567 104.81 58.01C104.437 58.1633 104.01 58.24 103.53 58.24ZM104.72 55.93C104.953 55.93 105.187 55.8767 105.42 55.77C105.653 55.6567 105.87 55.5 106.07 55.3C106.27 55.0933 106.443 54.85 106.59 54.57V53.04C106.51 53.1 106.407 53.1567 106.28 53.21C106.16 53.2567 105.98 53.31 105.74 53.37C105.507 53.4233 105.18 53.4933 104.76 53.58C104.52 53.6267 104.313 53.7067 104.14 53.82C103.967 53.9333 103.83 54.08 103.73 54.26C103.637 54.4333 103.59 54.64 103.59 54.88C103.59 55.26 103.703 55.53 103.93 55.69C104.163 55.85 104.427 55.93 104.72 55.93ZM114.427 58.27C113.514 58.27 112.76 58.0233 112.167 57.53C111.574 57.0367 111.134 56.39 110.847 55.59C110.56 54.79 110.417 53.9267 110.417 53C110.417 52.0067 110.567 51.1133 110.867 50.32C111.174 49.5267 111.627 48.9 112.227 48.44C112.827 47.98 113.57 47.75 114.457 47.75C114.85 47.75 115.214 47.8033 115.547 47.91C115.88 48.01 116.174 48.1567 116.427 48.35C116.687 48.5433 116.907 48.7733 117.087 49.04H117.327V48.13C117.327 47.3167 117.327 46.5167 117.327 45.73C117.327 44.9367 117.327 44.14 117.327 43.34L120.307 43.08C120.307 43.8667 120.307 44.6767 120.307 45.51C120.307 46.3367 120.307 47.21 120.307 48.13V53.68C120.307 54.5067 120.307 55.2567 120.307 55.93C120.307 56.5967 120.307 57.2867 120.307 58H117.777L117.597 56.69H117.387C117.147 57.03 116.877 57.3167 116.577 57.55C116.284 57.7833 115.957 57.96 115.597 58.08C115.244 58.2067 114.854 58.27 114.427 58.27ZM115.557 55.73C115.83 55.73 116.077 55.6833 116.297 55.59C116.524 55.4967 116.72 55.3667 116.887 55.2C117.06 55.0333 117.207 54.8367 117.327 54.61V51.21C117.194 51.0233 117.034 50.8633 116.847 50.73C116.667 50.5967 116.467 50.4967 116.247 50.43C116.027 50.3567 115.8 50.32 115.567 50.32C115.1 50.32 114.71 50.4433 114.397 50.69C114.09 50.9367 113.857 51.2667 113.697 51.68C113.544 52.0867 113.467 52.5333 113.467 53.02C113.467 53.4867 113.54 53.9267 113.687 54.34C113.84 54.7467 114.07 55.08 114.377 55.34C114.69 55.6 115.084 55.73 115.557 55.73ZM125.086 58.26C124.593 58.26 124.123 58.23 123.676 58.17C123.229 58.1167 122.819 58.04 122.446 57.94C122.073 57.8333 121.746 57.7133 121.466 57.58L121.656 55.05C121.949 55.23 122.276 55.39 122.636 55.53C123.003 55.6633 123.376 55.7667 123.756 55.84C124.143 55.9133 124.519 55.95 124.886 55.95C125.153 55.95 125.393 55.9267 125.606 55.88C125.819 55.8267 125.986 55.7367 126.106 55.61C126.226 55.4767 126.286 55.28 126.286 55.02C126.286 54.8333 126.219 54.68 126.086 54.56C125.959 54.44 125.743 54.33 125.436 54.23C125.136 54.1233 124.723 54.0033 124.196 53.87C123.603 53.7167 123.103 53.5233 122.696 53.29C122.289 53.05 121.983 52.7433 121.776 52.37C121.569 51.9967 121.466 51.52 121.466 50.94C121.466 49.9333 121.793 49.1533 122.446 48.6C123.106 48.04 124.003 47.76 125.136 47.76C125.629 47.76 126.103 47.7933 126.556 47.86C127.009 47.9267 127.419 48.0167 127.786 48.13C128.159 48.2367 128.473 48.3467 128.726 48.46L128.526 51.01C128.219 50.8167 127.886 50.6567 127.526 50.53C127.166 50.3967 126.819 50.2967 126.486 50.23C126.159 50.1633 125.889 50.13 125.676 50.13C125.463 50.13 125.266 50.16 125.086 50.22C124.913 50.2733 124.776 50.3633 124.676 50.49C124.576 50.6167 124.526 50.7833 124.526 50.99C124.526 51.1633 124.569 51.3167 124.656 51.45C124.743 51.5767 124.906 51.6967 125.146 51.81C125.386 51.9167 125.736 52.0333 126.196 52.16C126.916 52.3533 127.506 52.5633 127.966 52.79C128.426 53.01 128.766 53.2933 128.986 53.64C129.213 53.9867 129.326 54.4467 129.326 55.02C129.326 55.66 129.179 56.2267 128.886 56.72C128.599 57.2067 128.143 57.5867 127.516 57.86C126.896 58.1267 126.086 58.26 125.086 58.26Z" fill="#35364D"/>
</svg>
