<svg width="161" height="98" viewBox="0 0 161 98" fill="none" xmlns="http://www.w3.org/2000/svg">
<rect x="0.5" y="0.5" width="160" height="97" rx="24.5" fill="white" stroke="#DDDBEB"/>
<path d="M34.24 58.22C33.0333 58.22 31.9767 58.0267 31.07 57.64C30.1633 57.2467 29.4067 56.71 28.8 56.03C28.2 55.3433 27.75 54.5567 27.45 53.67C27.15 52.7833 27 51.8467 27 50.86C27 49.4733 27.28 48.2233 27.84 47.11C28.4067 45.9967 29.2233 45.1133 30.29 44.46C31.3567 43.8067 32.6533 43.48 34.18 43.48C35.34 43.48 36.3633 43.67 37.25 44.05C38.1433 44.43 38.8933 44.9567 39.5 45.63C40.1067 46.3033 40.5633 47.0867 40.87 47.98C41.1767 48.8733 41.33 49.83 41.33 50.85C41.33 52.2567 41.05 53.5167 40.49 54.63C39.93 55.7367 39.12 56.6133 38.06 57.26C37 57.9 35.7267 58.22 34.24 58.22ZM34.19 56.66C35.1033 56.66 35.89 56.5033 36.55 56.19C37.21 55.87 37.7533 55.4367 38.18 54.89C38.6133 54.3433 38.9333 53.7233 39.14 53.03C39.3467 52.33 39.45 51.6033 39.45 50.85C39.45 50.0367 39.3367 49.28 39.11 48.58C38.89 47.8733 38.5567 47.2567 38.11 46.73C37.67 46.1967 37.1233 45.7833 36.47 45.49C35.8167 45.19 35.0567 45.04 34.19 45.04C33.2967 45.04 32.5167 45.1967 31.85 45.51C31.19 45.8233 30.64 46.2533 30.2 46.8C29.76 47.34 29.43 47.96 29.21 48.66C28.99 49.3533 28.88 50.0833 28.88 50.85C28.88 51.6233 28.9867 52.3567 29.2 53.05C29.4133 53.7433 29.7367 54.3633 30.17 54.91C30.61 55.45 31.1633 55.8767 31.83 56.19C32.4967 56.5033 33.2833 56.66 34.19 56.66ZM43.2677 61.9C43.2677 61.1667 43.2677 60.4467 43.2677 59.74C43.2677 59.04 43.2677 58.28 43.2677 57.46V52.62C43.2677 51.8867 43.2677 51.1367 43.2677 50.37C43.2677 49.6033 43.2677 48.84 43.2677 48.08L44.7677 47.98L44.8077 49.27H44.9777C45.1777 49.01 45.431 48.7733 45.7377 48.56C46.0443 48.34 46.3943 48.1667 46.7877 48.04C47.1877 47.9067 47.6243 47.84 48.0977 47.84C49.0043 47.84 49.7743 48.0667 50.4077 48.52C51.0477 48.9667 51.5343 49.58 51.8677 50.36C52.201 51.14 52.3677 52.0233 52.3677 53.01C52.3677 53.9367 52.211 54.7967 51.8977 55.59C51.591 56.3767 51.121 57.0133 50.4877 57.5C49.861 57.98 49.0743 58.22 48.1277 58.22C47.6877 58.22 47.281 58.16 46.9077 58.04C46.5343 57.9267 46.1943 57.7633 45.8877 57.55C45.5877 57.33 45.3143 57.0633 45.0677 56.75H44.9177V57.53C44.9177 58.31 44.9177 59.0367 44.9177 59.71C44.9177 60.39 44.9177 61.1 44.9177 61.84L43.2677 61.9ZM47.6277 56.74C48.341 56.74 48.921 56.5633 49.3677 56.21C49.821 55.8567 50.151 55.4 50.3577 54.84C50.571 54.2733 50.6777 53.6667 50.6777 53.02C50.6777 52.3467 50.5643 51.7333 50.3377 51.18C50.1177 50.62 49.781 50.1733 49.3277 49.84C48.8743 49.5067 48.2977 49.34 47.5977 49.34C47.251 49.34 46.911 49.3933 46.5777 49.5C46.2443 49.6 45.9343 49.7533 45.6477 49.96C45.3677 50.16 45.1243 50.41 44.9177 50.71V55.12C45.1177 55.46 45.3477 55.75 45.6077 55.99C45.8743 56.23 46.1743 56.4167 46.5077 56.55C46.841 56.6767 47.2143 56.74 47.6277 56.74ZM58.7836 58.22C57.5969 58.22 56.6203 57.9933 55.8536 57.54C55.0869 57.0867 54.5169 56.4667 54.1436 55.68C53.7703 54.8933 53.5836 53.9933 53.5836 52.98C53.5836 51.98 53.7669 51.0933 54.1336 50.32C54.5003 49.5467 55.0269 48.9433 55.7136 48.51C56.4003 48.07 57.2203 47.85 58.1736 47.85C59.0136 47.85 59.7336 48.0133 60.3336 48.34C60.9403 48.6667 61.4069 49.1467 61.7336 49.78C62.0603 50.4067 62.2236 51.1833 62.2236 52.11C62.2236 52.3567 62.2169 52.58 62.2036 52.78C62.1969 52.9733 62.1769 53.17 62.1436 53.37L60.6936 52.64C60.7069 52.5333 60.7136 52.4333 60.7136 52.34C60.7203 52.24 60.7236 52.1433 60.7236 52.05C60.7236 51.11 60.4903 50.3967 60.0236 49.91C59.5569 49.4167 58.9469 49.17 58.1936 49.17C57.5869 49.17 57.0636 49.3267 56.6236 49.64C56.1903 49.9467 55.8536 50.3733 55.6136 50.92C55.3736 51.4667 55.2536 52.09 55.2536 52.79V53.02C55.2536 53.7933 55.3869 54.46 55.6536 55.02C55.9203 55.58 56.3236 56.0133 56.8636 56.32C57.4103 56.62 58.1036 56.77 58.9436 56.77C59.2569 56.77 59.5869 56.7467 59.9336 56.7C60.2869 56.6467 60.6336 56.5667 60.9736 56.46C61.3203 56.3533 61.6503 56.2133 61.9636 56.04L62.0336 57.53C61.7803 57.67 61.4869 57.7933 61.1536 57.9C60.8203 58 60.4536 58.0767 60.0536 58.13C59.6536 58.19 59.2303 58.22 58.7836 58.22ZM54.2736 53.37V52.19L61.1336 52.13L62.1436 52.51V53.37H54.2736ZM64.0505 58C64.0505 57.26 64.0505 56.55 64.0505 55.87C64.0505 55.19 64.0505 54.44 64.0505 53.62V52.62C64.0505 51.8867 64.0505 51.1367 64.0505 50.37C64.0505 49.6033 64.0505 48.84 64.0505 48.08L65.4905 47.98L65.5405 49.82H65.7205C65.9338 49.52 66.2071 49.2167 66.5405 48.91C66.8738 48.6033 67.2671 48.35 67.7205 48.15C68.1738 47.9433 68.6938 47.84 69.2805 47.84C70.3338 47.84 71.1038 48.1433 71.5905 48.75C72.0771 49.3567 72.3205 50.2367 72.3205 51.39C72.3205 51.8233 72.3205 52.2067 72.3205 52.54C72.3205 52.8733 72.3205 53.2333 72.3205 53.62C72.3205 54.4067 72.3205 55.15 72.3205 55.85C72.3205 56.5433 72.3205 57.26 72.3205 58H70.6705C70.6705 57.26 70.6705 56.5467 70.6705 55.86C70.6705 55.1667 70.6705 54.4433 70.6705 53.69V51.81C70.6705 51.0167 70.5271 50.4167 70.2405 50.01C69.9605 49.6033 69.4505 49.4 68.7105 49.4C68.2638 49.4 67.8571 49.49 67.4905 49.67C67.1238 49.85 66.7905 50.0933 66.4905 50.4C66.1971 50.7 65.9338 51.0333 65.7005 51.4V53.69C65.7005 54.47 65.7005 55.2 65.7005 55.88C65.7005 56.5533 65.7005 57.26 65.7005 58H64.0505ZM74.4053 58C74.4053 57.2333 74.4053 56.49 74.4053 55.77C74.4053 55.05 74.4053 54.2433 74.4053 53.35V48.51C74.4053 47.59 74.4053 46.76 74.4053 46.02C74.4053 45.28 74.4053 44.52 74.4053 43.74H77.6953C77.6953 44.52 77.6953 45.28 77.6953 46.02C77.6953 46.76 77.6953 47.59 77.6953 48.51V52.82C77.6953 53.7133 77.6953 54.52 77.6953 55.24C77.6953 55.96 77.6953 56.7033 77.6953 57.47L76.5553 55.13H79.3453C80.0386 55.13 80.6453 55.13 81.1653 55.13C81.692 55.13 82.1786 55.13 82.6253 55.13C83.0786 55.13 83.542 55.13 84.0153 55.13V58H74.4053ZM85.0869 58C85.0869 57.2867 85.0869 56.5967 85.0869 55.93C85.0869 55.2567 85.0869 54.5067 85.0869 53.68V52.68C85.0869 52.02 85.0869 51.43 85.0869 50.91C85.0869 50.3833 85.0869 49.89 85.0869 49.43C85.0869 48.9633 85.0869 48.4933 85.0869 48.02L88.0769 47.93C88.0769 48.41 88.0769 48.8867 88.0769 49.36C88.0769 49.8333 88.0769 50.3367 88.0769 50.87C88.0769 51.4033 88.0769 52.0067 88.0769 52.68V53.68C88.0769 54.5067 88.0769 55.2567 88.0769 55.93C88.0769 56.5967 88.0769 57.2867 88.0769 58H85.0869ZM86.5569 46.48C86.0035 46.48 85.5602 46.35 85.2269 46.09C84.9002 45.8233 84.7369 45.3933 84.7369 44.8C84.7369 44.2667 84.9002 43.86 85.2269 43.58C85.5602 43.2933 86.0102 43.15 86.5769 43.15C87.1435 43.15 87.5869 43.3 87.9069 43.6C88.2335 43.8933 88.3969 44.2933 88.3969 44.8C88.3969 45.3933 88.2335 45.8233 87.9069 46.09C87.5802 46.35 87.1302 46.48 86.5569 46.48ZM95.6833 58.27C95.2366 58.27 94.8299 58.2067 94.4633 58.08C94.1033 57.96 93.7733 57.79 93.4733 57.57C93.1799 57.3433 92.9166 57.0733 92.6833 56.76H92.4733L92.1533 58H89.7933C89.7933 57.2867 89.7933 56.5967 89.7933 55.93C89.7933 55.2567 89.7933 54.5067 89.7933 53.68V48.13C89.7933 47.3167 89.7933 46.5133 89.7933 45.72C89.7933 44.92 89.7933 44.1267 89.7933 43.34L92.7833 43.08C92.7833 43.8667 92.7833 44.6767 92.7833 45.51C92.7833 46.3367 92.7833 47.21 92.7833 48.13V49.04H93.0233C93.1966 48.7733 93.4133 48.5433 93.6733 48.35C93.9333 48.1567 94.2266 48.01 94.5533 47.91C94.8866 47.8033 95.2533 47.75 95.6533 47.75C96.5333 47.75 97.2733 47.98 97.8733 48.44C98.4733 48.9 98.9266 49.5267 99.2333 50.32C99.5399 51.1133 99.6933 52.0067 99.6933 53C99.6933 53.9267 99.5466 54.79 99.2533 55.59C98.9666 56.39 98.5266 57.0367 97.9333 57.53C97.3399 58.0233 96.5899 58.27 95.6833 58.27ZM94.5533 55.73C95.0266 55.73 95.4166 55.6 95.7233 55.34C96.0366 55.08 96.2666 54.7467 96.4133 54.34C96.5599 53.9267 96.6333 53.4867 96.6333 53.02C96.6333 52.5333 96.5566 52.0867 96.4033 51.68C96.2499 51.2667 96.0166 50.9367 95.7033 50.69C95.3966 50.4433 95.0066 50.32 94.5333 50.32C94.2999 50.32 94.0733 50.3567 93.8533 50.43C93.6399 50.4967 93.4399 50.5967 93.2533 50.73C93.0733 50.8633 92.9166 51.0233 92.7833 51.21V54.61C92.9033 54.8367 93.0466 55.0333 93.2133 55.2C93.3799 55.3667 93.5733 55.4967 93.7933 55.59C94.0199 55.6833 94.2733 55.73 94.5533 55.73ZM100.829 58C100.829 57.2867 100.829 56.5967 100.829 55.93C100.829 55.2567 100.829 54.5067 100.829 53.68V52.68C100.829 51.9133 100.829 51.1433 100.829 50.37C100.829 49.5967 100.829 48.8133 100.829 48.02L103.339 47.87L103.469 49.71H103.719C103.979 49.17 104.266 48.76 104.579 48.48C104.893 48.1933 105.213 48 105.539 47.9C105.866 47.8 106.179 47.75 106.479 47.75C106.633 47.75 106.803 47.7633 106.989 47.79C107.183 47.8167 107.363 47.8633 107.529 47.93L107.269 50.83C107.009 50.81 106.776 50.7933 106.569 50.78C106.363 50.7667 106.143 50.76 105.909 50.76C105.723 50.76 105.529 50.78 105.329 50.82C105.136 50.86 104.946 50.94 104.759 51.06C104.573 51.18 104.399 51.3467 104.239 51.56C104.079 51.7733 103.939 52.05 103.819 52.39V53.84C103.819 54.5867 103.819 55.29 103.819 55.95C103.819 56.6033 103.819 57.2867 103.819 58H100.829ZM110.426 58.24C109.853 58.24 109.353 58.12 108.926 57.88C108.499 57.64 108.166 57.3033 107.926 56.87C107.686 56.43 107.566 55.91 107.566 55.31C107.566 54.7433 107.666 54.27 107.866 53.89C108.066 53.5033 108.323 53.19 108.636 52.95C108.956 52.71 109.303 52.5267 109.676 52.4C110.056 52.2733 110.426 52.18 110.786 52.12L113.566 51.69C113.579 51.3033 113.506 51.0033 113.346 50.79C113.186 50.57 112.953 50.4167 112.646 50.33C112.346 50.2433 111.986 50.2 111.566 50.2C111.339 50.2 111.093 50.22 110.826 50.26C110.559 50.2933 110.279 50.3467 109.986 50.42C109.699 50.4933 109.399 50.5833 109.086 50.69C108.779 50.7967 108.469 50.9267 108.156 51.08L108.016 48.53C108.263 48.4433 108.546 48.3533 108.866 48.26C109.186 48.1667 109.533 48.0833 109.906 48.01C110.279 47.93 110.673 47.8667 111.086 47.82C111.506 47.7733 111.936 47.75 112.376 47.75C113.209 47.75 113.919 47.8733 114.506 48.12C115.099 48.36 115.553 48.74 115.866 49.26C116.179 49.78 116.336 50.46 116.336 51.3C116.336 51.6267 116.336 52.0267 116.336 52.5C116.336 52.9733 116.336 53.3967 116.336 53.77V54.72C116.336 55.2267 116.336 55.75 116.336 56.29C116.336 56.8233 116.336 57.3933 116.336 58H113.786L113.596 56.67H113.366C113.186 56.9233 112.959 57.1733 112.686 57.42C112.413 57.66 112.086 57.8567 111.706 58.01C111.333 58.1633 110.906 58.24 110.426 58.24ZM111.616 55.93C111.849 55.93 112.083 55.8767 112.316 55.77C112.549 55.6567 112.766 55.5 112.966 55.3C113.166 55.0933 113.339 54.85 113.486 54.57V53.04C113.406 53.1 113.303 53.1567 113.176 53.21C113.056 53.2567 112.876 53.31 112.636 53.37C112.403 53.4233 112.076 53.4933 111.656 53.58C111.416 53.6267 111.209 53.7067 111.036 53.82C110.863 53.9333 110.726 54.08 110.626 54.26C110.533 54.4333 110.486 54.64 110.486 54.88C110.486 55.26 110.599 55.53 110.826 55.69C111.059 55.85 111.323 55.93 111.616 55.93ZM117.823 58C117.823 57.2867 117.823 56.5967 117.823 55.93C117.823 55.2567 117.823 54.5067 117.823 53.68V52.68C117.823 51.9133 117.823 51.1433 117.823 50.37C117.823 49.5967 117.823 48.8133 117.823 48.02L120.333 47.87L120.463 49.71H120.713C120.973 49.17 121.26 48.76 121.573 48.48C121.886 48.1933 122.206 48 122.533 47.9C122.86 47.8 123.173 47.75 123.473 47.75C123.626 47.75 123.796 47.7633 123.983 47.79C124.176 47.8167 124.356 47.8633 124.523 47.93L124.263 50.83C124.003 50.81 123.77 50.7933 123.563 50.78C123.356 50.7667 123.136 50.76 122.903 50.76C122.716 50.76 122.523 50.78 122.323 50.82C122.13 50.86 121.94 50.94 121.753 51.06C121.566 51.18 121.393 51.3467 121.233 51.56C121.073 51.7733 120.933 52.05 120.813 52.39V53.84C120.813 54.5867 120.813 55.29 120.813 55.95C120.813 56.6033 120.813 57.2867 120.813 58H117.823ZM126.305 61.93C126.578 61.25 126.855 60.5533 127.135 59.84C127.415 59.1333 127.692 58.4433 127.965 57.77V58.33C127.725 57.6433 127.482 56.9533 127.235 56.26C126.988 55.56 126.745 54.8767 126.505 54.21L125.875 52.41C125.622 51.6967 125.362 50.9667 125.095 50.22C124.835 49.4667 124.578 48.7333 124.325 48.02L127.545 47.93C127.732 48.6567 127.915 49.3667 128.095 50.06C128.275 50.7467 128.458 51.4533 128.645 52.18L129.345 54.88H129.585L130.355 52.18C130.555 51.48 130.752 50.7867 130.945 50.1C131.138 49.4133 131.332 48.72 131.525 48.02H134.725C134.518 48.5533 134.318 49.07 134.125 49.57C133.932 50.07 133.718 50.6233 133.485 51.23C133.258 51.83 132.985 52.5467 132.665 53.38L131.575 56.18C131.088 57.4467 130.672 58.5267 130.325 59.42C129.985 60.3133 129.675 61.12 129.395 61.84L126.305 61.93Z" fill="#35364D"/>
</svg>
